<svg xmlns="http://www.w3.org/2000/svg" viewBox="0 0 640 12" shape-rendering="crispEdges"><g fill="#15803D" opacity="0.55"><rect x="0" y="4" width="8" height="4"/><rect x="16" y="4" width="8" height="4"/><rect x="32" y="4" width="8" height="4"/><rect x="48" y="4" width="8" height="4"/><rect x="64" y="4" width="8" height="4"/><rect x="80" y="4" width="8" height="4"/><rect x="96" y="4" width="8" height="4"/><rect x="112" y="4" width="8" height="4"/><rect x="128" y="4" width="8" height="4"/><rect x="144" y="4" width="8" height="4"/><rect x="160" y="4" width="8" height="4"/><rect x="176" y="4" width="8" height="4"/><rect x="192" y="4" width="8" height="4"/><rect x="208" y="4" width="8" height="4"/><rect x="224" y="4" width="8" height="4"/><rect x="240" y="4" width="8" height="4"/><rect x="256" y="4" width="8" height="4"/><rect x="272" y="4" width="8" height="4"/><rect x="288" y="4" width="8" height="4"/><rect x="304" y="4" width="8" height="4"/><rect x="320" y="4" width="8" height="4"/><rect x="336" y="4" width="8" height="4"/><rect x="352" y="4" width="8" height="4"/><rect x="368" y="4" width="8" height="4"/><rect x="384" y="4" width="8" height="4"/><rect x="400" y="4" width="8" height="4"/><rect x="416" y="4" width="8" height="4"/><rect x="432" y="4" width="8" height="4"/><rect x="448" y="4" width="8" height="4"/><rect x="464" y="4" width="8" height="4"/><rect x="480" y="4" width="8" height="4"/><rect x="496" y="4" width="8" height="4"/><rect x="512" y="4" width="8" height="4"/><rect x="528" y="4" width="8" height="4"/><rect x="544" y="4" width="8" height="4"/><rect x="560" y="4" width="8" height="4"/><rect x="576" y="4" width="8" height="4"/><rect x="592" y="4" width="8" height="4"/><rect x="608" y="4" width="8" height="4"/><rect x="624" y="4" width="8" height="4"/></g><rect y="4" width="8" height="4" fill="#39FF14"><animate attributeName="x" values="0;632;0" dur="6s" repeatCount="indefinite"/></rect></svg>
