<svg xmlns="http://www.w3.org/2000/svg" viewBox="0 0 96 30" shape-rendering="crispEdges"><clipPath id="gkoclip"><rect x="0" y="0" width="0" height="30"><animate attributeName="width" values="0;18;42;66;90" keyTimes="0.00000;0.25000;0.50000;0.75000;1.00000" calcMode="discrete" dur="0.88s" repeatCount="1" fill="freeze"/></rect></clipPath><g clip-path="url(#gkoclip)"><rect x="0" y="0" width="6" height="6" fill="#15803D"/><rect x="6" y="0" width="6" height="6" fill="#15803D"/><rect x="12" y="0" width="6" height="6" fill="#15803D"/><rect x="0" y="6" width="6" height="6" fill="#15803D"/><rect x="0" y="12" width="6" height="6" fill="#15803D"/><rect x="12" y="12" width="6" height="6" fill="#15803D"/><rect x="0" y="18" width="6" height="6" fill="#15803D"/><rect x="12" y="18" width="6" height="6" fill="#15803D"/><rect x="0" y="24" width="6" height="6" fill="#15803D"/><rect x="6" y="24" width="6" height="6" fill="#15803D"/><rect x="12" y="24" width="6" height="6" fill="#15803D"/><rect x="24" y="0" width="6" height="6" fill="#15803D"/><rect x="30" y="0" width="6" height="6" fill="#15803D"/><rect x="36" y="0" width="6" height="6" fill="#15803D"/><rect x="24" y="6" width="6" height="6" fill="#15803D"/><rect x="24" y="12" width="6" height="6" fill="#15803D"/><rect x="30" y="12" width="6" height="6" fill="#15803D"/><rect x="36" y="12" width="6" height="6" fill="#15803D"/><rect x="24" y="18" width="6" height="6" fill="#15803D"/><rect x="24" y="24" width="6" height="6" fill="#15803D"/><rect x="30" y="24" width="6" height="6" fill="#15803D"/><rect x="36" y="24" width="6" height="6" fill="#15803D"/><rect x="48" y="0" width="6" height="6" fill="#15803D"/><rect x="60" y="0" width="6" height="6" fill="#15803D"/><rect x="48" y="6" width="6" height="6" fill="#15803D"/><rect x="54" y="6" width="6" height="6" fill="#15803D"/><rect x="48" y="12" width="6" height="6" fill="#15803D"/><rect x="48" y="18" width="6" height="6" fill="#15803D"/><rect x="54" y="18" width="6" height="6" fill="#15803D"/><rect x="48" y="24" width="6" height="6" fill="#15803D"/><rect x="60" y="24" width="6" height="6" fill="#15803D"/><rect x="72" y="0" width="6" height="6" fill="#15803D"/><rect x="78" y="0" width="6" height="6" fill="#15803D"/><rect x="84" y="0" width="6" height="6" fill="#15803D"/><rect x="72" y="6" width="6" height="6" fill="#15803D"/><rect x="84" y="6" width="6" height="6" fill="#15803D"/><rect x="72" y="12" width="6" height="6" fill="#15803D"/><rect x="84" y="12" width="6" height="6" fill="#15803D"/><rect x="72" y="18" width="6" height="6" fill="#15803D"/><rect x="84" y="18" width="6" height="6" fill="#15803D"/><rect x="72" y="24" width="6" height="6" fill="#15803D"/><rect x="78" y="24" width="6" height="6" fill="#15803D"/><rect x="84" y="24" width="6" height="6" fill="#15803D"/></g><rect x="0" y="0" width="6" height="30" fill="#39FF14"><animate attributeName="x" values="18;42;66;90" keyTimes="0.00000;0.25000;0.50000;0.75000" calcMode="discrete" dur="0.88s" repeatCount="1" fill="freeze"/><animate attributeName="opacity" values="1;0;1;0;1;0;1" dur="1.1s" begin="0.88s" repeatCount="indefinite"/></rect></svg>
