<svg xmlns="http://www.w3.org/2000/svg" viewBox="0 0 84 80" shape-rendering="crispEdges"><g transform="translate(0,8)"><animateTransform attributeName="transform" type="translate" values="0,8; 0,4; 0,8" keyTimes="0;0.5;1" calcMode="discrete" dur="1.2s" repeatCount="indefinite"/><rect x="24" y="0" width="6" height="6" fill="#FFB000"/><rect x="30" y="0" width="6" height="6" fill="#FFB000"/><rect x="36" y="0" width="6" height="6" fill="#FFB000"/><rect x="42" y="0" width="6" height="6" fill="#FFB000"/><rect x="48" y="0" width="6" height="6" fill="#FFB000"/><rect x="54" y="0" width="6" height="6" fill="#FFB000"/><rect x="12" y="6" width="6" height="6" fill="#FFB000"/><rect x="18" y="6" width="6" height="6" fill="#FFB000"/><rect x="24" y="6" width="6" height="6" fill="#FFB000"/><rect x="30" y="6" width="6" height="6" fill="#FFB000"/><rect x="36" y="6" width="6" height="6" fill="#FFB000"/><rect x="42" y="6" width="6" height="6" fill="#FFB000"/><rect x="48" y="6" width="6" height="6" fill="#FFB000"/><rect x="54" y="6" width="6" height="6" fill="#FFB000"/><rect x="60" y="6" width="6" height="6" fill="#FFB000"/><rect x="66" y="6" width="6" height="6" fill="#FFB000"/><rect x="6" y="12" width="6" height="6" fill="#FFB000"/><rect x="12" y="12" width="6" height="6" fill="#FFB000"/><rect x="18" y="12" width="6" height="6" fill="#FFB000"/><rect x="24" y="12" width="6" height="6" fill="#FFB000"/><rect x="30" y="12" width="6" height="6" fill="#FFB000"/><rect x="36" y="12" width="6" height="6" fill="#FFB000"/><rect x="42" y="12" width="6" height="6" fill="#FFB000"/><rect x="48" y="12" width="6" height="6" fill="#FFB000"/><rect x="54" y="12" width="6" height="6" fill="#FFB000"/><rect x="60" y="12" width="6" height="6" fill="#FFB000"/><rect x="66" y="12" width="6" height="6" fill="#FFB000"/><rect x="72" y="12" width="6" height="6" fill="#FFB000"/><rect x="0" y="18" width="6" height="6" fill="#FFB000"/><rect x="6" y="18" width="6" height="6" fill="#FFB000"/><rect x="12" y="18" width="6" height="6" fill="#FFB000"/><rect x="18" y="18" width="6" height="6" fill="#FFB000"/><rect x="24" y="18" width="6" height="6" fill="#FFB000"/><rect x="30" y="18" width="6" height="6" fill="#FFB000"/><rect x="36" y="18" width="6" height="6" fill="#FFB000"/><rect x="42" y="18" width="6" height="6" fill="#FFB000"/><rect x="48" y="18" width="6" height="6" fill="#FFB000"/><rect x="54" y="18" width="6" height="6" fill="#FFB000"/><rect x="60" y="18" width="6" height="6" fill="#FFB000"/><rect x="66" y="18" width="6" height="6" fill="#FFB000"/><rect x="72" y="18" width="6" height="6" fill="#FFB000"/><rect x="78" y="18" width="6" height="6" fill="#FFB000"/><rect x="0" y="24" width="6" height="6" fill="#FFB000"/><rect x="6" y="24" width="6" height="6" fill="#FFB000"/><rect x="12" y="24" width="6" height="6" fill="#FFB000"/><rect x="18" y="24" width="6" height="6" fill="#FFB000"/><rect x="24" y="24" width="6" height="6" fill="#FFB000"/><rect x="30" y="24" width="6" height="6" fill="#FFB000"/><rect x="36" y="24" width="6" height="6" fill="#FFB000"/><rect x="42" y="24" width="6" height="6" fill="#FFB000"/><rect x="48" y="24" width="6" height="6" fill="#FFB000"/><rect x="54" y="24" width="6" height="6" fill="#FFB000"/><rect x="60" y="24" width="6" height="6" fill="#FFB000"/><rect x="66" y="24" width="6" height="6" fill="#FFB000"/><rect x="72" y="24" width="6" height="6" fill="#FFB000"/><rect x="78" y="24" width="6" height="6" fill="#FFB000"/><rect x="0" y="30" width="6" height="6" fill="#FFB000"/><rect x="6" y="30" width="6" height="6" fill="#FFB000"/><rect x="12" y="30" width="6" height="6" fill="#FFB000"/><rect x="18" y="30" width="6" height="6" fill="#FFB000"/><rect x="24" y="30" width="6" height="6" fill="#FFB000"/><rect x="30" y="30" width="6" height="6" fill="#FFB000"/><rect x="36" y="30" width="6" height="6" fill="#FFB000"/><rect x="42" y="30" width="6" height="6" fill="#FFB000"/><rect x="48" y="30" width="6" height="6" fill="#FFB000"/><rect x="54" y="30" width="6" height="6" fill="#FFB000"/><rect x="60" y="30" width="6" height="6" fill="#FFB000"/><rect x="66" y="30" width="6" height="6" fill="#FFB000"/><rect x="72" y="30" width="6" height="6" fill="#FFB000"/><rect x="78" y="30" width="6" height="6" fill="#FFB000"/><rect x="0" y="36" width="6" height="6" fill="#FFB000"/><rect x="6" y="36" width="6" height="6" fill="#FFB000"/><rect x="12" y="36" width="6" height="6" fill="#FFB000"/><rect x="18" y="36" width="6" height="6" fill="#FFB000"/><rect x="24" y="36" width="6" height="6" fill="#FFB000"/><rect x="30" y="36" width="6" height="6" fill="#FFB000"/><rect x="36" y="36" width="6" height="6" fill="#FFB000"/><rect x="42" y="36" width="6" height="6" fill="#FFB000"/><rect x="48" y="36" width="6" height="6" fill="#FFB000"/><rect x="54" y="36" width="6" height="6" fill="#FFB000"/><rect x="60" y="36" width="6" height="6" fill="#FFB000"/><rect x="66" y="36" width="6" height="6" fill="#FFB000"/><rect x="72" y="36" width="6" height="6" fill="#FFB000"/><rect x="78" y="36" width="6" height="6" fill="#FFB000"/><rect x="0" y="42" width="6" height="6" fill="#FFB000"/><rect x="6" y="42" width="6" height="6" fill="#FFB000"/><rect x="12" y="42" width="6" height="6" fill="#FFB000"/><rect x="18" y="42" width="6" height="6" fill="#FFB000"/><rect x="24" y="42" width="6" height="6" fill="#FFB000"/><rect x="30" y="42" width="6" height="6" fill="#FFB000"/><rect x="36" y="42" width="6" height="6" fill="#FFB000"/><rect x="42" y="42" width="6" height="6" fill="#FFB000"/><rect x="48" y="42" width="6" height="6" fill="#FFB000"/><rect x="54" y="42" width="6" height="6" fill="#FFB000"/><rect x="60" y="42" width="6" height="6" fill="#FFB000"/><rect x="66" y="42" width="6" height="6" fill="#FFB000"/><rect x="72" y="42" width="6" height="6" fill="#FFB000"/><rect x="78" y="42" width="6" height="6" fill="#FFB000"/><rect x="0" y="48" width="6" height="6" fill="#FFB000"/><rect x="6" y="48" width="6" height="6" fill="#FFB000"/><rect x="12" y="48" width="6" height="6" fill="#FFB000"/><rect x="18" y="48" width="6" height="6" fill="#FFB000"/><rect x="24" y="48" width="6" height="6" fill="#FFB000"/><rect x="30" y="48" width="6" height="6" fill="#FFB000"/><rect x="36" y="48" width="6" height="6" fill="#FFB000"/><rect x="42" y="48" width="6" height="6" fill="#FFB000"/><rect x="48" y="48" width="6" height="6" fill="#FFB000"/><rect x="54" y="48" width="6" height="6" fill="#FFB000"/><rect x="60" y="48" width="6" height="6" fill="#FFB000"/><rect x="66" y="48" width="6" height="6" fill="#FFB000"/><rect x="72" y="48" width="6" height="6" fill="#FFB000"/><rect x="78" y="48" width="6" height="6" fill="#FFB000"/><rect x="0" y="54" width="6" height="6" fill="#FFB000"/><rect x="6" y="54" width="6" height="6" fill="#FFB000"/><rect x="12" y="54" width="6" height="6" fill="#FFB000"/><rect x="18" y="54" width="6" height="6" fill="#FFB000"/><rect x="24" y="54" width="6" height="6" fill="#FFB000"/><rect x="30" y="54" width="6" height="6" fill="#FFB000"/><rect x="36" y="54" width="6" height="6" fill="#FFB000"/><rect x="42" y="54" width="6" height="6" fill="#FFB000"/><rect x="48" y="54" width="6" height="6" fill="#FFB000"/><rect x="54" y="54" width="6" height="6" fill="#FFB000"/><rect x="60" y="54" width="6" height="6" fill="#FFB000"/><rect x="66" y="54" width="6" height="6" fill="#FFB000"/><rect x="72" y="54" width="6" height="6" fill="#FFB000"/><rect x="78" y="54" width="6" height="6" fill="#FFB000"/><rect x="18" y="24" width="12" height="18" fill="#0B0800"/><rect x="54" y="24" width="12" height="18" fill="#0B0800"/><rect x="18" y="27" width="6" height="12" fill="#FF6A00"><animate attributeName="x" values="18;24;18" dur="3.6s" repeatCount="indefinite" calcMode="discrete" keyTimes="0;0.5;1"/></rect><rect x="54" y="27" width="6" height="12" fill="#FF6A00"><animate attributeName="x" values="54;60;54" dur="3.6s" repeatCount="indefinite" calcMode="discrete" keyTimes="0;0.5;1"/></rect><g><g opacity="1"><animate attributeName="opacity" values="1;0;1" dur="0.6s" repeatCount="indefinite" calcMode="discrete" keyTimes="0;0.5;1"/><rect x="0" y="60" width="6" height="6" fill="#FFB000"/><rect x="12" y="60" width="6" height="6" fill="#FFB000"/><rect x="24" y="60" width="6" height="6" fill="#FFB000"/><rect x="36" y="60" width="6" height="6" fill="#FFB000"/><rect x="48" y="60" width="6" height="6" fill="#FFB000"/><rect x="60" y="60" width="6" height="6" fill="#FFB000"/><rect x="72" y="60" width="6" height="6" fill="#FFB000"/></g><g opacity="0"><animate attributeName="opacity" values="0;1;0" dur="0.6s" repeatCount="indefinite" calcMode="discrete" keyTimes="0;0.5;1"/><rect x="6" y="60" width="6" height="6" fill="#FFB000"/><rect x="18" y="60" width="6" height="6" fill="#FFB000"/><rect x="30" y="60" width="6" height="6" fill="#FFB000"/><rect x="42" y="60" width="6" height="6" fill="#FFB000"/><rect x="54" y="60" width="6" height="6" fill="#FFB000"/><rect x="66" y="60" width="6" height="6" fill="#FFB000"/><rect x="78" y="60" width="6" height="6" fill="#FFB000"/></g></g></g></svg>
