<svg xmlns="http://www.w3.org/2000/svg" viewBox="0 0 419 85" shape-rendering="crispEdges"><clipPath id="gclip"><rect x="0" y="0" width="0" height="30"><animate attributeName="width" values="0;18;42;66;90;114;138;162;186;210;234;258;282;306;330;354;378;378;354;330;306;282;258;234;210;186;162;138;114;90;66;42;18;0;0" keyTimes="0.00000;0.02651;0.05301;0.07952;0.10602;0.13253;0.15904;0.18554;0.21205;0.23855;0.26506;0.29157;0.31807;0.34458;0.37108;0.39759;0.42410;0.68916;0.70482;0.72048;0.73614;0.75181;0.76747;0.78313;0.79880;0.81446;0.83012;0.84578;0.86145;0.87711;0.89277;0.90843;0.92410;0.93976;1.00000" calcMode="discrete" dur="8.30s" repeatCount="indefinite"/></rect></clipPath><rect x="5" y="5" width="414" height="62" rx="14" fill="#00000033"/><polygon points="29,65 51,65 37,83" fill="#00000033"/><polygon points="24,60 46,60 32,78" fill="#FFFFFF" stroke="#141414" stroke-width="4" stroke-linejoin="round"/><rect x="0" y="0" width="414" height="62" rx="14" fill="#FFFFFF" stroke="#141414" stroke-width="4"/><rect x="28" y="58" width="14" height="8" fill="#FFFFFF"/><g transform="translate(18,16)" clip-path="url(#gclip)"><rect x="0" y="0" width="6" height="6" fill="#141414"/><rect x="12" y="0" width="6" height="6" fill="#141414"/><rect x="0" y="6" width="6" height="6" fill="#141414"/><rect x="12" y="6" width="6" height="6" fill="#141414"/><rect x="0" y="12" width="6" height="6" fill="#141414"/><rect x="6" y="12" width="6" height="6" fill="#141414"/><rect x="12" y="12" width="6" height="6" fill="#141414"/><rect x="0" y="18" width="6" height="6" fill="#141414"/><rect x="12" y="18" width="6" height="6" fill="#141414"/><rect x="0" y="24" width="6" height="6" fill="#141414"/><rect x="12" y="24" width="6" height="6" fill="#141414"/><rect x="24" y="0" width="6" height="6" fill="#141414"/><rect x="30" y="0" width="6" height="6" fill="#141414"/><rect x="36" y="0" width="6" height="6" fill="#141414"/><rect x="24" y="6" width="6" height="6" fill="#141414"/><rect x="24" y="12" width="6" height="6" fill="#141414"/><rect x="30" y="12" width="6" height="6" fill="#141414"/><rect x="36" y="12" width="6" height="6" fill="#141414"/><rect x="24" y="18" width="6" height="6" fill="#141414"/><rect x="24" y="24" width="6" height="6" fill="#141414"/><rect x="30" y="24" width="6" height="6" fill="#141414"/><rect x="36" y="24" width="6" height="6" fill="#141414"/><rect x="48" y="0" width="6" height="6" fill="#141414"/><rect x="48" y="6" width="6" height="6" fill="#141414"/><rect x="48" y="12" width="6" height="6" fill="#141414"/><rect x="48" y="18" width="6" height="6" fill="#141414"/><rect x="48" y="24" width="6" height="6" fill="#141414"/><rect x="54" y="24" width="6" height="6" fill="#141414"/><rect x="60" y="24" width="6" height="6" fill="#141414"/><rect x="72" y="0" width="6" height="6" fill="#141414"/><rect x="72" y="6" width="6" height="6" fill="#141414"/><rect x="72" y="12" width="6" height="6" fill="#141414"/><rect x="72" y="18" width="6" height="6" fill="#141414"/><rect x="72" y="24" width="6" height="6" fill="#141414"/><rect x="78" y="24" width="6" height="6" fill="#141414"/><rect x="84" y="24" width="6" height="6" fill="#141414"/><rect x="96" y="0" width="6" height="6" fill="#141414"/><rect x="102" y="0" width="6" height="6" fill="#141414"/><rect x="108" y="0" width="6" height="6" fill="#141414"/><rect x="96" y="6" width="6" height="6" fill="#141414"/><rect x="108" y="6" width="6" height="6" fill="#141414"/><rect x="96" y="12" width="6" height="6" fill="#141414"/><rect x="108" y="12" width="6" height="6" fill="#141414"/><rect x="96" y="18" width="6" height="6" fill="#141414"/><rect x="108" y="18" width="6" height="6" fill="#141414"/><rect x="96" y="24" width="6" height="6" fill="#141414"/><rect x="102" y="24" width="6" height="6" fill="#141414"/><rect x="108" y="24" width="6" height="6" fill="#141414"/><rect x="144" y="0" width="6" height="6" fill="#141414"/><rect x="150" y="0" width="6" height="6" fill="#141414"/><rect x="156" y="0" width="6" height="6" fill="#141414"/><rect x="150" y="6" width="6" height="6" fill="#141414"/><rect x="150" y="12" width="6" height="6" fill="#141414"/><rect x="150" y="18" width="6" height="6" fill="#141414"/><rect x="144" y="24" width="6" height="6" fill="#141414"/><rect x="150" y="24" width="6" height="6" fill="#141414"/><rect x="156" y="24" width="6" height="6" fill="#141414"/><rect x="198" y="0" width="6" height="6" fill="#141414"/><rect x="192" y="6" width="6" height="6" fill="#141414"/><rect x="204" y="6" width="6" height="6" fill="#141414"/><rect x="192" y="12" width="6" height="6" fill="#141414"/><rect x="198" y="12" width="6" height="6" fill="#141414"/><rect x="204" y="12" width="6" height="6" fill="#141414"/><rect x="192" y="18" width="6" height="6" fill="#141414"/><rect x="204" y="18" width="6" height="6" fill="#141414"/><rect x="192" y="24" width="6" height="6" fill="#141414"/><rect x="204" y="24" width="6" height="6" fill="#141414"/><rect x="216" y="0" width="6" height="6" fill="#141414"/><rect x="228" y="0" width="6" height="6" fill="#141414"/><rect x="216" y="6" width="6" height="6" fill="#141414"/><rect x="222" y="6" width="6" height="6" fill="#141414"/><rect x="228" y="6" width="6" height="6" fill="#141414"/><rect x="216" y="12" width="6" height="6" fill="#141414"/><rect x="228" y="12" width="6" height="6" fill="#141414"/><rect x="216" y="18" width="6" height="6" fill="#141414"/><rect x="228" y="18" width="6" height="6" fill="#141414"/><rect x="216" y="24" width="6" height="6" fill="#141414"/><rect x="228" y="24" width="6" height="6" fill="#141414"/><rect x="270" y="0" width="6" height="6" fill="#141414"/><rect x="264" y="6" width="6" height="6" fill="#141414"/><rect x="276" y="6" width="6" height="6" fill="#141414"/><rect x="264" y="12" width="6" height="6" fill="#141414"/><rect x="270" y="12" width="6" height="6" fill="#141414"/><rect x="276" y="12" width="6" height="6" fill="#141414"/><rect x="264" y="18" width="6" height="6" fill="#141414"/><rect x="276" y="18" width="6" height="6" fill="#141414"/><rect x="264" y="24" width="6" height="6" fill="#141414"/><rect x="276" y="24" width="6" height="6" fill="#141414"/><rect x="288" y="0" width="6" height="6" fill="#141414"/><rect x="294" y="0" width="6" height="6" fill="#141414"/><rect x="300" y="0" width="6" height="6" fill="#141414"/><rect x="288" y="6" width="6" height="6" fill="#141414"/><rect x="300" y="6" width="6" height="6" fill="#141414"/><rect x="288" y="12" width="6" height="6" fill="#141414"/><rect x="294" y="12" width="6" height="6" fill="#141414"/><rect x="300" y="12" width="6" height="6" fill="#141414"/><rect x="288" y="18" width="6" height="6" fill="#141414"/><rect x="300" y="18" width="6" height="6" fill="#141414"/><rect x="288" y="24" width="6" height="6" fill="#141414"/><rect x="294" y="24" width="6" height="6" fill="#141414"/><rect x="300" y="24" width="6" height="6" fill="#141414"/><rect x="312" y="0" width="6" height="6" fill="#141414"/><rect x="318" y="0" width="6" height="6" fill="#141414"/><rect x="312" y="6" width="6" height="6" fill="#141414"/><rect x="324" y="6" width="6" height="6" fill="#141414"/><rect x="312" y="12" width="6" height="6" fill="#141414"/><rect x="324" y="12" width="6" height="6" fill="#141414"/><rect x="312" y="18" width="6" height="6" fill="#141414"/><rect x="324" y="18" width="6" height="6" fill="#141414"/><rect x="312" y="24" width="6" height="6" fill="#141414"/><rect x="318" y="24" width="6" height="6" fill="#141414"/><rect x="336" y="0" width="6" height="6" fill="#141414"/><rect x="348" y="0" width="6" height="6" fill="#141414"/><rect x="336" y="6" width="6" height="6" fill="#141414"/><rect x="348" y="6" width="6" height="6" fill="#141414"/><rect x="336" y="12" width="6" height="6" fill="#141414"/><rect x="348" y="12" width="6" height="6" fill="#141414"/><rect x="336" y="18" width="6" height="6" fill="#141414"/><rect x="348" y="18" width="6" height="6" fill="#141414"/><rect x="336" y="24" width="6" height="6" fill="#141414"/><rect x="342" y="24" width="6" height="6" fill="#141414"/><rect x="348" y="24" width="6" height="6" fill="#141414"/><rect x="360" y="0" width="6" height="6" fill="#141414"/><rect x="366" y="0" width="6" height="6" fill="#141414"/><rect x="372" y="0" width="6" height="6" fill="#141414"/><rect x="360" y="6" width="6" height="6" fill="#141414"/><rect x="372" y="6" width="6" height="6" fill="#141414"/><rect x="360" y="12" width="6" height="6" fill="#141414"/><rect x="366" y="12" width="6" height="6" fill="#141414"/><rect x="372" y="12" width="6" height="6" fill="#141414"/><rect x="360" y="18" width="6" height="6" fill="#141414"/><rect x="366" y="18" width="6" height="6" fill="#141414"/><rect x="360" y="24" width="6" height="6" fill="#141414"/><rect x="372" y="24" width="6" height="6" fill="#141414"/></g><g transform="translate(18,16)"><rect x="378" y="0" width="6" height="30" fill="#FF6A00" opacity="0"><animate attributeName="opacity" values="0;0;1;0;1;0;1;0" keyTimes="0;0.42410;0.42510;0.51157;0.51257;0.59904;0.60004;0.68916" dur="8.30s" repeatCount="indefinite" calcMode="discrete"/></rect></g></svg>
