<svg xmlns="http://www.w3.org/2000/svg" viewBox="0 0 96 92" shape-rendering="crispEdges"><g transform="translate(0,8)"><animateTransform attributeName="transform" type="translate" values="0,8; 0,4; 0,8" keyTimes="0;0.5;1" calcMode="discrete" dur="1.5s" repeatCount="indefinite"/><rect x="36" y="0" width="24" height="6" fill="#F5F5F5" stroke="#1A1A1A" stroke-width="1.5"/><rect x="24" y="6" width="48" height="6" fill="#F5F5F5" stroke="#1A1A1A" stroke-width="1.5"/><rect x="18" y="12" width="60" height="6" fill="#F5F5F5" stroke="#1A1A1A" stroke-width="1.5"/><rect x="12" y="18" width="72" height="6" fill="#F5F5F5" stroke="#1A1A1A" stroke-width="1.5"/><rect x="6" y="24" width="84" height="6" fill="#F5F5F5" stroke="#1A1A1A" stroke-width="1.5"/><rect x="6" y="30" width="84" height="6" fill="#F5F5F5" stroke="#1A1A1A" stroke-width="1.5"/><rect x="6" y="36" width="84" height="6" fill="#F5F5F5" stroke="#1A1A1A" stroke-width="1.5"/><rect x="6" y="42" width="84" height="6" fill="#F5F5F5" stroke="#1A1A1A" stroke-width="1.5"/><rect x="6" y="48" width="84" height="6" fill="#F5F5F5" stroke="#1A1A1A" stroke-width="1.5"/><rect x="12" y="54" width="72" height="6" fill="#F5F5F5" stroke="#1A1A1A" stroke-width="1.5"/><rect x="18" y="60" width="60" height="6" fill="#F5F5F5" stroke="#1A1A1A" stroke-width="1.5"/><rect x="18" y="66" width="12" height="6" fill="#F5F5F5" stroke="#1A1A1A" stroke-width="1.5"/><rect x="42" y="66" width="12" height="6" fill="#F5F5F5" stroke="#1A1A1A" stroke-width="1.5"/><rect x="66" y="66" width="12" height="6" fill="#F5F5F5" stroke="#1A1A1A" stroke-width="1.5"/><rect x="18" y="72" width="6" height="6" fill="#F5F5F5" stroke="#1A1A1A" stroke-width="1.5"/><rect x="42" y="72" width="6" height="6" fill="#F5F5F5" stroke="#1A1A1A" stroke-width="1.5"/><rect x="72" y="72" width="6" height="6" fill="#F5F5F5" stroke="#1A1A1A" stroke-width="1.5"/><rect x="72" y="24" width="18" height="6" fill="#C4C4C4" stroke="#1A1A1A" stroke-width="1.5"/><rect x="72" y="30" width="18" height="6" fill="#C4C4C4" stroke="#1A1A1A" stroke-width="1.5"/><rect x="72" y="36" width="18" height="6" fill="#C4C4C4" stroke="#1A1A1A" stroke-width="1.5"/><rect x="72" y="42" width="18" height="6" fill="#C4C4C4" stroke="#1A1A1A" stroke-width="1.5"/><rect x="72" y="48" width="18" height="6" fill="#C4C4C4" stroke="#1A1A1A" stroke-width="1.5"/><circle cx="33.0" cy="27.599999999999998" r="6.6000000000000005" fill="#1A1A1A"/><circle cx="30.7" cy="25.3" r="2.3" fill="#FFFFFF"/><circle cx="57.0" cy="27.599999999999998" r="6.6000000000000005" fill="#1A1A1A"/><circle cx="54.7" cy="25.3" r="2.3" fill="#FFFFFF"/><rect x="42" y="38.4" width="9.0" height="3.0" rx="1" fill="#1A1A1A"/><circle cx="45" cy="49" r="9.0" fill="#F5F5F5" stroke="#1A1A1A" stroke-width="1.5"/><circle cx="45" cy="49" r="6.0" fill="#4FC7E8"/><circle cx="45" cy="49" r="3.0" fill="#EAFBFF"><animate attributeName="r" values="3.0;4.8;3.0" dur="1.8s" repeatCount="indefinite"/><animate attributeName="opacity" values="1;0.6;1" dur="1.8s" repeatCount="indefinite"/></circle></g></svg>
