<svg xmlns="http://www.w3.org/2000/svg" viewBox="0 0 96 110" shape-rendering="crispEdges"><g transform="translate(0,8)"><animateTransform attributeName="transform" type="translate" values="0,8; 0,4; 0,8" keyTimes="0;0.5;1" calcMode="discrete" dur="1.5s" repeatCount="indefinite"/><rect x="30" y="0" width="30" height="6" fill="#F2F2F2"/><rect x="24" y="6" width="42" height="6" fill="#F2F2F2"/><rect x="18" y="12" width="54" height="6" fill="#F2F2F2"/><rect x="12" y="18" width="66" height="6" fill="#F2F2F2"/><rect x="12" y="24" width="66" height="6" fill="#F2F2F2"/><rect x="12" y="30" width="66" height="6" fill="#F2F2F2"/><rect x="12" y="36" width="66" height="6" fill="#F2F2F2"/><rect x="12" y="42" width="66" height="6" fill="#F2F2F2"/><rect x="12" y="48" width="72" height="6" fill="#F2F2F2"/><rect x="12" y="54" width="72" height="6" fill="#F2F2F2"/><rect x="12" y="60" width="72" height="6" fill="#F2F2F2"/><rect x="12" y="66" width="66" height="6" fill="#F2F2F2"/><rect x="12" y="72" width="66" height="6" fill="#F2F2F2"/><rect x="12" y="78" width="60" height="6" fill="#F2F2F2"/><rect x="18" y="84" width="54" height="6" fill="#F2F2F2"/><rect x="18" y="90" width="18" height="6" fill="#F2F2F2"/><rect x="42" y="90" width="24" height="6" fill="#F2F2F2"/><rect x="54" y="18" width="18" height="6" fill="#A8A8A8" opacity="0.7"/><rect x="54" y="24" width="18" height="6" fill="#A8A8A8" opacity="0.7"/><rect x="54" y="30" width="18" height="6" fill="#A8A8A8" opacity="0.7"/><rect x="54" y="36" width="18" height="6" fill="#A8A8A8" opacity="0.7"/><rect x="54" y="42" width="18" height="6" fill="#A8A8A8" opacity="0.7"/><rect x="54" y="48" width="18" height="6" fill="#A8A8A8" opacity="0.7"/><rect x="54" y="54" width="18" height="6" fill="#A8A8A8" opacity="0.7"/><rect x="54" y="60" width="18" height="6" fill="#A8A8A8" opacity="0.7"/><rect x="54" y="66" width="18" height="6" fill="#A8A8A8" opacity="0.7"/><rect x="54" y="72" width="18" height="6" fill="#A8A8A8" opacity="0.7"/><rect x="54" y="78" width="18" height="6" fill="#A8A8A8" opacity="0.7"/><rect x="54" y="84" width="18" height="6" fill="#A8A8A8" opacity="0.7"/><rect x="30" y="0" width="6" height="6" fill="#6B6B6B" opacity="0.5"/><rect x="24" y="6" width="6" height="6" fill="#6B6B6B" opacity="0.5"/><rect x="18" y="12" width="6" height="6" fill="#6B6B6B" opacity="0.5"/><rect x="12" y="18" width="6" height="6" fill="#6B6B6B" opacity="0.5"/><rect x="12" y="24" width="6" height="6" fill="#6B6B6B" opacity="0.5"/><rect x="12" y="30" width="6" height="6" fill="#6B6B6B" opacity="0.5"/><rect x="12" y="36" width="6" height="6" fill="#6B6B6B" opacity="0.5"/><rect x="12" y="42" width="6" height="6" fill="#6B6B6B" opacity="0.5"/><rect x="12" y="48" width="6" height="6" fill="#6B6B6B" opacity="0.5"/><rect x="12" y="54" width="6" height="6" fill="#6B6B6B" opacity="0.5"/><rect x="12" y="60" width="6" height="6" fill="#6B6B6B" opacity="0.5"/><rect x="12" y="66" width="6" height="6" fill="#6B6B6B" opacity="0.5"/><rect x="12" y="72" width="6" height="6" fill="#6B6B6B" opacity="0.5"/><rect x="12" y="78" width="6" height="6" fill="#6B6B6B" opacity="0.5"/><rect x="18" y="84" width="6" height="6" fill="#6B6B6B" opacity="0.5"/><rect x="54" y="0" width="6" height="6" fill="#6B6B6B" opacity="0.5"/><rect x="60" y="6" width="6" height="6" fill="#6B6B6B" opacity="0.5"/><rect x="66" y="12" width="6" height="6" fill="#6B6B6B" opacity="0.5"/><rect x="72" y="18" width="6" height="6" fill="#6B6B6B" opacity="0.5"/><rect x="72" y="24" width="6" height="6" fill="#6B6B6B" opacity="0.5"/><rect x="72" y="30" width="6" height="6" fill="#6B6B6B" opacity="0.5"/><rect x="72" y="36" width="6" height="6" fill="#6B6B6B" opacity="0.5"/><rect x="72" y="42" width="6" height="6" fill="#6B6B6B" opacity="0.5"/><rect x="78" y="48" width="6" height="6" fill="#6B6B6B" opacity="0.5"/><rect x="78" y="54" width="6" height="6" fill="#6B6B6B" opacity="0.5"/><rect x="78" y="60" width="6" height="6" fill="#6B6B6B" opacity="0.5"/><rect x="72" y="66" width="6" height="6" fill="#6B6B6B" opacity="0.5"/><rect x="72" y="72" width="6" height="6" fill="#6B6B6B" opacity="0.5"/><rect x="66" y="78" width="6" height="6" fill="#6B6B6B" opacity="0.5"/><rect x="66" y="84" width="6" height="6" fill="#6B6B6B" opacity="0.5"/><polygon points="30,24 38.4,24 38.4,33.6 30,38.4" fill="#111111"/><rect x="48" y="30" width="8.4" height="12.0" fill="#111111"/><rect x="39.0" y="42" width="6" height="4.2" fill="#111111"/><circle cx="40" cy="51" r="9.6" fill="#F2F2F2" stroke="#6B6B6B" stroke-width="1"/><circle cx="40" cy="51" r="6.6" fill="#4FC7E8"/><circle cx="40" cy="51" r="3.3" fill="#EAFBFF"><animate attributeName="r" values="3.3;5.1;3.3" dur="1.8s" repeatCount="indefinite"/><animate attributeName="opacity" values="1;0.6;1" dur="1.8s" repeatCount="indefinite"/></circle></g></svg>
