<svg xmlns="http://www.w3.org/2000/svg" viewBox="0 0 84 106" shape-rendering="crispEdges"><g transform="translate(0,6)"><animateTransform attributeName="transform" type="translate" values="0,6; 0,2; 0,6" keyTimes="0;0.5;1" calcMode="discrete" dur="1.3s" repeatCount="indefinite"/><rect x="30" y="0" width="24" height="6" fill="#FFB000"/><rect x="24" y="6" width="36" height="6" fill="#FFB000"/><rect x="18" y="12" width="48" height="6" fill="#FFB000"/><rect x="12" y="18" width="60" height="6" fill="#FFB000"/><rect x="12" y="24" width="66" height="6" fill="#FFB000"/><rect x="12" y="30" width="66" height="6" fill="#FFB000"/><rect x="12" y="36" width="66" height="6" fill="#FFB000"/><rect x="12" y="42" width="60" height="6" fill="#FFB000"/><rect x="12" y="48" width="60" height="6" fill="#FFB000"/><rect x="12" y="54" width="54" height="6" fill="#FFB000"/><rect x="12" y="60" width="48" height="6" fill="#FFB000"/><rect x="12" y="66" width="42" height="6" fill="#FFB000"/><rect x="18" y="72" width="30" height="6" fill="#FFB000"/><rect x="18" y="78" width="24" height="6" fill="#FFB000"/><rect x="18" y="84" width="12" height="6" fill="#FFB000"/><rect x="36" y="84" width="12" height="6" fill="#FFB000"/><rect x="24" y="24" width="6" height="12" fill="#0B0800"/><rect x="48" y="30" width="6" height="12" fill="#0B0800"/><rect x="36" y="42" width="6" height="6" fill="#0B0800"/><circle cx="42" cy="57" r="9.0" fill="#0B0800"/><circle cx="42" cy="57" r="9.0" fill="none" stroke="#FF6A00" stroke-width="1.5"/><circle cx="42" cy="57" r="3.5999999999999996" fill="#FFE9B0"><animate attributeName="r" values="3.5999999999999996;5.4;3.5999999999999996" dur="1.6s" repeatCount="indefinite"/><animate attributeName="opacity" values="1;0.5;1" dur="1.6s" repeatCount="indefinite"/></circle></g></svg>
