<svg xmlns="http://www.w3.org/2000/svg" viewBox="0 0 90 94" shape-rendering="crispEdges"><g transform="translate(0,8)"><animateTransform attributeName="transform" type="translate" values="0,8; 0,4; 0,8" keyTimes="0;0.5;1" calcMode="discrete" dur="1.5s" repeatCount="indefinite"/><rect x="40" y="0" width="15" height="5" fill="#F2F2F2"/><rect x="30" y="5" width="35" height="5" fill="#F2F2F2"/><rect x="25" y="10" width="45" height="5" fill="#F2F2F2"/><rect x="20" y="15" width="55" height="5" fill="#F2F2F2"/><rect x="15" y="20" width="65" height="5" fill="#F2F2F2"/><rect x="10" y="25" width="70" height="5" fill="#F2F2F2"/><rect x="10" y="30" width="70" height="5" fill="#F2F2F2"/><rect x="10" y="35" width="70" height="5" fill="#F2F2F2"/><rect x="10" y="40" width="70" height="5" fill="#F2F2F2"/><rect x="10" y="45" width="70" height="5" fill="#F2F2F2"/><rect x="10" y="50" width="70" height="5" fill="#F2F2F2"/><rect x="10" y="55" width="65" height="5" fill="#F2F2F2"/><rect x="15" y="60" width="60" height="5" fill="#F2F2F2"/><rect x="15" y="65" width="55" height="5" fill="#F2F2F2"/><rect x="20" y="70" width="45" height="5" fill="#F2F2F2"/><rect x="20" y="75" width="15" height="5" fill="#F2F2F2"/><rect x="45" y="75" width="15" height="5" fill="#F2F2F2"/><rect x="65" y="75" width="10" height="5" fill="#F2F2F2"/><rect x="65" y="20" width="15" height="5" fill="#B8B8B8" opacity="0.8"/><rect x="65" y="25" width="15" height="5" fill="#B8B8B8" opacity="0.8"/><rect x="65" y="30" width="15" height="5" fill="#B8B8B8" opacity="0.8"/><rect x="65" y="35" width="15" height="5" fill="#B8B8B8" opacity="0.8"/><rect x="65" y="40" width="15" height="5" fill="#B8B8B8" opacity="0.8"/><rect x="65" y="45" width="15" height="5" fill="#B8B8B8" opacity="0.8"/><rect x="65" y="50" width="15" height="5" fill="#B8B8B8" opacity="0.8"/><rect x="60" y="55" width="15" height="5" fill="#B8B8B8" opacity="0.8"/><rect x="60" y="60" width="15" height="5" fill="#B8B8B8" opacity="0.8"/><rect x="55" y="65" width="15" height="5" fill="#B8B8B8" opacity="0.8"/><rect x="50" y="70" width="15" height="5" fill="#B8B8B8" opacity="0.8"/><rect x="15" y="30" width="10" height="5" fill="#8C8C8C" opacity="0.9"/><rect x="10" y="35" width="20" height="5" fill="#8C8C8C" opacity="0.9"/><rect x="10" y="40" width="20" height="5" fill="#8C8C8C" opacity="0.9"/><rect x="10" y="45" width="20" height="5" fill="#8C8C8C" opacity="0.9"/><rect x="15" y="50" width="15" height="5" fill="#8C8C8C" opacity="0.9"/><rect x="15" y="55" width="15" height="5" fill="#8C8C8C" opacity="0.9"/><rect x="20" y="60" width="10" height="5" fill="#8C8C8C" opacity="0.9"/><polygon points="30,20 41.0,20 41.0,28.0 30,32.0" fill="#141414"/><polygon points="47.0,22.0 57.0,22.0 57.0,30.0 47.0,33.0" fill="#141414"/><rect x="42.0" y="36.0" width="4.5" height="3.0" fill="#141414"/><circle cx="44" cy="46" r="8.5" fill="#F2F2F2" stroke="#8C8C8C" stroke-width="1"/><circle cx="44" cy="46" r="5.8" fill="#4FC7E8"/><circle cx="44" cy="46" r="2.8" fill="#EAFBFF"><animate attributeName="r" values="2.8;4.2;2.8" dur="1.8s" repeatCount="indefinite"/><animate attributeName="opacity" values="1;0.6;1" dur="1.8s" repeatCount="indefinite"/></circle></g></svg>
