<svg xmlns="http://www.w3.org/2000/svg" viewBox="0 0 89 103" shape-rendering="crispEdges"><clipPath id="haclip"><rect x="0" y="0" width="64" height="64" rx="8"/></clipPath><rect x="5" y="5" width="84" height="84" rx="16" fill="#00000022"/><polygon points="19,87 35,87 26,101" fill="#00000022"/><polygon points="14,82 30,82 21,96" fill="#FFFFFF" stroke="#0284C7" stroke-width="4" stroke-linejoin="round"/><rect x="0" y="0" width="84" height="84" rx="16" fill="#FFFFFF" stroke="#0284C7" stroke-width="4"/><rect x="18" y="80" width="8" height="8" fill="#FFFFFF"/><g transform="translate(10,10)" clip-path="url(#haclip)"><rect x="6" y="8" width="52" height="44" fill="none" stroke="#0284C7" stroke-width="3"/><rect x="6" y="8" width="52" height="10" fill="#0284C7" opacity="0.22"/><rect x="10" y="11" width="5" height="5" fill="#0284C7"/><rect x="17" y="11" width="5" height="5" fill="#0284C7"/><rect x="24" y="11" width="5" height="5" fill="#00E5FF"><animate attributeName="opacity" values="1;0.15;1" dur="1.1s" repeatCount="indefinite"/></rect><rect x="12" y="26" width="5" height="5" fill="#00E5FF"/><rect x="20" y="26" width="24" height="5" fill="#0284C7" opacity="0.5"/><rect x="12" y="36" width="5" height="5" fill="#0284C7" opacity="0.45"/><rect x="20" y="36" width="16" height="5" fill="#0284C7" opacity="0.35"/><rect x="38" y="36" width="5" height="5" fill="#00E5FF"><animate attributeName="x" values="38;48;38" dur="2.4s" repeatCount="indefinite"/><animate attributeName="opacity" values="1;0;1" dur="0.9s" repeatCount="indefinite"/></rect><rect x="12" y="48" width="40" height="5" fill="#0284C7" opacity="0.28"/><rect x="12" y="48" width="8" height="5" fill="#00E5FF"><animate attributeName="width" values="6;34;14;40;6" dur="3.2s" repeatCount="indefinite"/></rect><circle cx="50" cy="28" r="2" fill="#0284C7"><animate attributeName="r" values="2;10;2" dur="2.2s" repeatCount="indefinite"/><animate attributeName="opacity" values="0.9;0;0.9" dur="2.2s" repeatCount="indefinite"/></circle></g></svg>
