<svg xmlns="http://www.w3.org/2000/svg" viewBox="0 0 89 103" shape-rendering="crispEdges"><clipPath id="haclip"><rect x="0" y="0" width="64" height="64" rx="8"/></clipPath><rect x="5" y="5" width="84" height="84" rx="16" fill="#00000022"/><polygon points="19,87 35,87 26,101" fill="#00000022"/><polygon points="14,82 30,82 21,96" fill="#FFFFFF" stroke="#15803D" stroke-width="4" stroke-linejoin="round"/><rect x="0" y="0" width="84" height="84" rx="16" fill="#FFFFFF" stroke="#15803D" stroke-width="4"/><rect x="18" y="80" width="8" height="8" fill="#FFFFFF"/><g transform="translate(10,10)" clip-path="url(#haclip)">
  <rect x="8" y="10" width="48" height="40" fill="none" stroke="#15803D" stroke-width="3"/>
  <rect x="8" y="10" width="48" height="8" fill="#15803D" opacity="0.25"/>
  <rect x="12" y="12" width="4" height="4" fill="#15803D"/>
  <rect x="18" y="12" width="4" height="4" fill="#15803D"/>
  <rect x="24" y="12" width="4" height="4" fill="#39FF14">
    <animate attributeName="opacity" values="1;0.2;1" dur="1.2s" repeatCount="indefinite"/>
  </rect>
  <rect x="14" y="26" width="6" height="6" fill="#39FF14"/>
  <rect x="22" y="26" width="22" height="6" fill="#15803D" opacity="0.55"/>
  <rect x="14" y="36" width="6" height="6" fill="#15803D" opacity="0.4"/>
  <rect x="22" y="36" width="14" height="6" fill="#15803D" opacity="0.35"/>
  <rect x="38" y="36" width="6" height="6" fill="#39FF14">
    <animate attributeName="opacity" values="1;0;1" dur="1s" repeatCount="indefinite"/>
  </rect>
  <rect x="14" y="48" width="36" height="4" fill="#15803D" opacity="0.3"/>
  <rect x="14" y="48" width="12" height="4" fill="#39FF14">
    <animate attributeName="width" values="8;28;12;36;8" dur="3.5s" repeatCount="indefinite"/>
  </rect>
</g></svg>
