<svg xmlns="http://www.w3.org/2000/svg" viewBox="0 0 97 111" shape-rendering="crispEdges"><clipPath id="mbclip"><rect x="-6" y="-6" width="84" height="84" rx="8"/></clipPath><rect x="5" y="5" width="92" height="92" rx="16" fill="#00000022"/><polygon points="19,95 35,95 26,109" fill="#00000022"/><polygon points="14,90 30,90 21,104" fill="#FFFFFF" stroke="#15803D" stroke-width="4" stroke-linejoin="round"/><rect x="0" y="0" width="92" height="92" rx="16" fill="#FFFFFF" stroke="#15803D" stroke-width="4"/><rect x="18" y="88" width="8" height="8" fill="#FFFFFF"/><g transform="translate(10,10)" clip-path="url(#mbclip)"><g><animateTransform attributeName="transform" type="scale" values="1;1.04;1" dur="1.8s" repeatCount="indefinite"/><rect x="0" y="12" width="6" height="6" fill="#4ADE80"><animate attributeName="x" values="0;-3;0" dur="1.2s" repeatCount="indefinite"/><animate attributeName="y" values="12;12;12" dur="1.2s" repeatCount="indefinite"/></rect><rect x="0" y="36" width="6" height="6" fill="#4ADE80"><animate attributeName="x" values="0;-3;0" dur="1.4s" repeatCount="indefinite"/><animate attributeName="y" values="36;36;36" dur="1.4s" repeatCount="indefinite"/></rect><rect x="66" y="18" width="6" height="6" fill="#4ADE80"><animate attributeName="x" values="66;69;66" dur="1.6s" repeatCount="indefinite"/><animate attributeName="y" values="18;18;18" dur="1.6s" repeatCount="indefinite"/></rect><rect x="66" y="42" width="6" height="6" fill="#4ADE80"><animate attributeName="x" values="66;69;66" dur="1.2s" repeatCount="indefinite"/><animate attributeName="y" values="42;42;42" dur="1.2s" repeatCount="indefinite"/></rect><rect x="30" y="0" width="6" height="6" fill="#4ADE80"><animate attributeName="x" values="30;30;30" dur="1.4s" repeatCount="indefinite"/><animate attributeName="y" values="0;-3;0" dur="1.4s" repeatCount="indefinite"/></rect><rect x="36" y="54" width="6" height="6" fill="#4ADE80"><animate attributeName="x" values="36;36;36" dur="1.6s" repeatCount="indefinite"/><animate attributeName="y" values="54;57;54" dur="1.6s" repeatCount="indefinite"/></rect><rect x="24" y="0" width="24" height="6" fill="#4ADE80"/><rect x="12" y="6" width="48" height="6" fill="#4ADE80"/><rect x="6" y="12" width="60" height="6" fill="#4ADE80"/><rect x="6" y="18" width="60" height="6" fill="#4ADE80"/><rect x="0" y="24" width="72" height="6" fill="#4ADE80"/><rect x="0" y="30" width="72" height="6" fill="#4ADE80"/><rect x="6" y="36" width="60" height="6" fill="#4ADE80"/><rect x="6" y="42" width="60" height="6" fill="#4ADE80"/><rect x="12" y="48" width="48" height="6" fill="#4ADE80"/><rect x="24" y="54" width="24" height="6" fill="#4ADE80"/><circle cx="19.2" cy="13.2" r="7.8" fill="#166534"/><circle cx="45.0" cy="21.0" r="6.0" fill="#166534"/><circle cx="33.0" cy="36.0" r="6.6" fill="#166534"/><circle cx="49.8" cy="40.8" r="4.8" fill="#166534"/></g></g></svg>
