<svg xmlns="http://www.w3.org/2000/svg" viewBox="0 0 89 103" shape-rendering="crispEdges"><clipPath id="ngclip"><rect x="0" y="0" width="64" height="64" rx="8"/></clipPath><rect x="5" y="5" width="84" height="84" rx="16" fill="#00000022"/><polygon points="19,87 35,87 26,101" fill="#00000022"/><polygon points="14,82 30,82 21,96" fill="#FFFFFF" stroke="#15803D" stroke-width="4" stroke-linejoin="round"/><rect x="0" y="0" width="84" height="84" rx="16" fill="#FFFFFF" stroke="#15803D" stroke-width="4"/><rect x="18" y="80" width="8" height="8" fill="#FFFFFF"/><g transform="translate(10,10)" clip-path="url(#ngclip)"><g stroke="#39FF14" stroke-width="2" fill="none"><circle cx="32" cy="32" r="26"><animate attributeName="r" values="26;22;26" dur="2.4s" repeatCount="indefinite"/></circle><line x1="32" y1="2" x2="32" y2="12"/><line x1="32" y1="52" x2="32" y2="62"/><line x1="2" y1="32" x2="12" y2="32"/><line x1="52" y1="32" x2="62" y2="32"/></g><g opacity="1"><animate attributeName="opacity" values="1;1;0.15;1;1" keyTimes="0;0.8;0.9;0.94;1" dur="2.4s" repeatCount="indefinite"/><rect x="24" y="12" width="16" height="6" fill="#EF4444"/><rect x="18" y="18" width="28" height="6" fill="#EF4444"/><rect x="14" y="24" width="36" height="6" fill="#EF4444"/><rect x="12" y="30" width="40" height="6" fill="#EF4444"/><rect x="12" y="36" width="40" height="6" fill="#EF4444"/><rect x="14" y="42" width="36" height="6" fill="#EF4444"/><rect x="18" y="48" width="28" height="6" fill="#EF4444"/><rect x="24" y="54" width="16" height="6" fill="#EF4444"/><rect x="28" y="28" width="8" height="8" fill="#7F1D1D"/></g><circle cx="32" cy="32" r="0" fill="#39FF14" opacity="0"><animate attributeName="r" values="0;0;22;0;0" keyTimes="0;0.82;0.9;0.98;1" dur="2.4s" repeatCount="indefinite"/><animate attributeName="opacity" values="0;0;0.85;0;0" keyTimes="0;0.82;0.9;0.98;1" dur="2.4s" repeatCount="indefinite"/></circle></g></svg>
