<svg xmlns="http://www.w3.org/2000/svg" viewBox="0 0 203 67" shape-rendering="crispEdges"><clipPath id="qtxclip"><rect x="0" y="0" width="0" height="30"><animate attributeName="width" values="0;18;42;66;90;114;138;162" keyTimes="0.00000;0.14286;0.28571;0.42857;0.57143;0.71429;0.85714;1.00000" calcMode="discrete" dur="1.54s" repeatCount="1" fill="freeze"/></rect></clipPath><rect x="5" y="5" width="198" height="62" rx="14" fill="#00000022"/><rect x="0" y="0" width="198" height="62" rx="14" fill="#FFFFFF" stroke="#15803D" stroke-width="4"/><g transform="translate(18,16)" clip-path="url(#qtxclip)"><rect x="0" y="0" width="6" height="6" fill="#0F172A"/><rect x="6" y="0" width="6" height="6" fill="#0F172A"/><rect x="12" y="0" width="6" height="6" fill="#0F172A"/><rect x="0" y="6" width="6" height="6" fill="#0F172A"/><rect x="12" y="6" width="6" height="6" fill="#0F172A"/><rect x="0" y="12" width="6" height="6" fill="#0F172A"/><rect x="12" y="12" width="6" height="6" fill="#0F172A"/><rect x="0" y="18" width="6" height="6" fill="#0F172A"/><rect x="6" y="18" width="6" height="6" fill="#0F172A"/><rect x="12" y="18" width="6" height="6" fill="#0F172A"/><rect x="12" y="24" width="6" height="6" fill="#0F172A"/><rect x="24" y="0" width="6" height="6" fill="#0F172A"/><rect x="36" y="0" width="6" height="6" fill="#0F172A"/><rect x="24" y="6" width="6" height="6" fill="#0F172A"/><rect x="36" y="6" width="6" height="6" fill="#0F172A"/><rect x="24" y="12" width="6" height="6" fill="#0F172A"/><rect x="36" y="12" width="6" height="6" fill="#0F172A"/><rect x="24" y="18" width="6" height="6" fill="#0F172A"/><rect x="36" y="18" width="6" height="6" fill="#0F172A"/><rect x="24" y="24" width="6" height="6" fill="#0F172A"/><rect x="30" y="24" width="6" height="6" fill="#0F172A"/><rect x="36" y="24" width="6" height="6" fill="#0F172A"/><rect x="54" y="0" width="6" height="6" fill="#0F172A"/><rect x="48" y="6" width="6" height="6" fill="#0F172A"/><rect x="60" y="6" width="6" height="6" fill="#0F172A"/><rect x="48" y="12" width="6" height="6" fill="#0F172A"/><rect x="54" y="12" width="6" height="6" fill="#0F172A"/><rect x="60" y="12" width="6" height="6" fill="#0F172A"/><rect x="48" y="18" width="6" height="6" fill="#0F172A"/><rect x="60" y="18" width="6" height="6" fill="#0F172A"/><rect x="48" y="24" width="6" height="6" fill="#0F172A"/><rect x="60" y="24" width="6" height="6" fill="#0F172A"/><rect x="72" y="0" width="6" height="6" fill="#0F172A"/><rect x="78" y="0" width="6" height="6" fill="#0F172A"/><rect x="84" y="0" width="6" height="6" fill="#0F172A"/><rect x="78" y="6" width="6" height="6" fill="#0F172A"/><rect x="78" y="12" width="6" height="6" fill="#0F172A"/><rect x="78" y="18" width="6" height="6" fill="#0F172A"/><rect x="78" y="24" width="6" height="6" fill="#0F172A"/><rect x="96" y="0" width="6" height="6" fill="#0F172A"/><rect x="102" y="0" width="6" height="6" fill="#0F172A"/><rect x="108" y="0" width="6" height="6" fill="#0F172A"/><rect x="96" y="6" width="6" height="6" fill="#0F172A"/><rect x="108" y="6" width="6" height="6" fill="#0F172A"/><rect x="96" y="12" width="6" height="6" fill="#0F172A"/><rect x="102" y="12" width="6" height="6" fill="#0F172A"/><rect x="108" y="12" width="6" height="6" fill="#0F172A"/><rect x="96" y="18" width="6" height="6" fill="#0F172A"/><rect x="102" y="18" width="6" height="6" fill="#0F172A"/><rect x="96" y="24" width="6" height="6" fill="#0F172A"/><rect x="108" y="24" width="6" height="6" fill="#0F172A"/><rect x="120" y="0" width="6" height="6" fill="#0F172A"/><rect x="126" y="0" width="6" height="6" fill="#0F172A"/><rect x="132" y="0" width="6" height="6" fill="#0F172A"/><rect x="126" y="6" width="6" height="6" fill="#0F172A"/><rect x="126" y="12" width="6" height="6" fill="#0F172A"/><rect x="126" y="18" width="6" height="6" fill="#0F172A"/><rect x="120" y="24" width="6" height="6" fill="#0F172A"/><rect x="126" y="24" width="6" height="6" fill="#0F172A"/><rect x="132" y="24" width="6" height="6" fill="#0F172A"/><rect x="144" y="0" width="6" height="6" fill="#0F172A"/><rect x="156" y="0" width="6" height="6" fill="#0F172A"/><rect x="144" y="6" width="6" height="6" fill="#0F172A"/><rect x="156" y="6" width="6" height="6" fill="#0F172A"/><rect x="150" y="12" width="6" height="6" fill="#0F172A"/><rect x="144" y="18" width="6" height="6" fill="#0F172A"/><rect x="156" y="18" width="6" height="6" fill="#0F172A"/><rect x="144" y="24" width="6" height="6" fill="#0F172A"/><rect x="156" y="24" width="6" height="6" fill="#0F172A"/></g><g transform="translate(18,16)"><rect x="0" y="0" width="6" height="30" fill="#39FF14"><animate attributeName="x" values="18;42;66;90;114;138;162" keyTimes="0.00000;0.14286;0.28571;0.42857;0.57143;0.71429;0.85714" calcMode="discrete" dur="1.54s" repeatCount="1" fill="freeze"/><animate attributeName="opacity" values="1;0;1;0;1;0;1" dur="1.1s" begin="1.54s" repeatCount="indefinite"/></rect></g></svg>
