<svg xmlns="http://www.w3.org/2000/svg" viewBox="0 0 224 40" shape-rendering="crispEdges"><rect width="224" height="40" fill="#0D0221"/><clipPath id="lclip"><rect x="0" y="0" width="0" height="40"><animate attributeName="width" values="0;216;216;0;0" keyTimes="0.00000;0.37433;0.67991;0.90451;1" dur="5.24s" repeatCount="indefinite"/></rect></clipPath><g clip-path="url(#lclip)"><rect x="0" y="0" width="8" height="8" fill="#00F5FF"/><rect x="0" y="8" width="8" height="8" fill="#00F5FF"/><rect x="0" y="16" width="8" height="8" fill="#00F5FF"/><rect x="0" y="24" width="8" height="8" fill="#00F5FF"/><rect x="0" y="32" width="8" height="8" fill="#00F5FF"/><rect x="8" y="32" width="8" height="8" fill="#00F5FF"/><rect x="16" y="32" width="8" height="8" fill="#00F5FF"/><rect x="32" y="0" width="8" height="8" fill="#00F5FF"/><rect x="40" y="0" width="8" height="8" fill="#00F5FF"/><rect x="48" y="0" width="8" height="8" fill="#00F5FF"/><rect x="32" y="8" width="8" height="8" fill="#00F5FF"/><rect x="32" y="16" width="8" height="8" fill="#00F5FF"/><rect x="40" y="16" width="8" height="8" fill="#00F5FF"/><rect x="48" y="16" width="8" height="8" fill="#00F5FF"/><rect x="32" y="24" width="8" height="8" fill="#00F5FF"/><rect x="32" y="32" width="8" height="8" fill="#00F5FF"/><rect x="40" y="32" width="8" height="8" fill="#00F5FF"/><rect x="48" y="32" width="8" height="8" fill="#00F5FF"/><rect x="72" y="0" width="8" height="8" fill="#00F5FF"/><rect x="64" y="8" width="8" height="8" fill="#00F5FF"/><rect x="80" y="8" width="8" height="8" fill="#00F5FF"/><rect x="64" y="16" width="8" height="8" fill="#00F5FF"/><rect x="72" y="16" width="8" height="8" fill="#00F5FF"/><rect x="80" y="16" width="8" height="8" fill="#00F5FF"/><rect x="64" y="24" width="8" height="8" fill="#00F5FF"/><rect x="80" y="24" width="8" height="8" fill="#00F5FF"/><rect x="64" y="32" width="8" height="8" fill="#00F5FF"/><rect x="80" y="32" width="8" height="8" fill="#00F5FF"/><rect x="96" y="0" width="8" height="8" fill="#00F5FF"/><rect x="104" y="0" width="8" height="8" fill="#00F5FF"/><rect x="112" y="0" width="8" height="8" fill="#00F5FF"/><rect x="96" y="8" width="8" height="8" fill="#00F5FF"/><rect x="112" y="8" width="8" height="8" fill="#00F5FF"/><rect x="96" y="16" width="8" height="8" fill="#00F5FF"/><rect x="104" y="16" width="8" height="8" fill="#00F5FF"/><rect x="112" y="16" width="8" height="8" fill="#00F5FF"/><rect x="96" y="24" width="8" height="8" fill="#00F5FF"/><rect x="104" y="24" width="8" height="8" fill="#00F5FF"/><rect x="96" y="32" width="8" height="8" fill="#00F5FF"/><rect x="112" y="32" width="8" height="8" fill="#00F5FF"/><rect x="128" y="0" width="8" height="8" fill="#00F5FF"/><rect x="144" y="0" width="8" height="8" fill="#00F5FF"/><rect x="128" y="8" width="8" height="8" fill="#00F5FF"/><rect x="136" y="8" width="8" height="8" fill="#00F5FF"/><rect x="144" y="8" width="8" height="8" fill="#00F5FF"/><rect x="128" y="16" width="8" height="8" fill="#00F5FF"/><rect x="136" y="16" width="8" height="8" fill="#00F5FF"/><rect x="144" y="16" width="8" height="8" fill="#00F5FF"/><rect x="128" y="24" width="8" height="8" fill="#00F5FF"/><rect x="144" y="24" width="8" height="8" fill="#00F5FF"/><rect x="128" y="32" width="8" height="8" fill="#00F5FF"/><rect x="144" y="32" width="8" height="8" fill="#00F5FF"/><rect x="160" y="0" width="8" height="8" fill="#00F5FF"/><rect x="168" y="0" width="8" height="8" fill="#00F5FF"/><rect x="176" y="0" width="8" height="8" fill="#00F5FF"/><rect x="160" y="8" width="8" height="8" fill="#00F5FF"/><rect x="160" y="16" width="8" height="8" fill="#00F5FF"/><rect x="168" y="16" width="8" height="8" fill="#00F5FF"/><rect x="176" y="16" width="8" height="8" fill="#00F5FF"/><rect x="160" y="24" width="8" height="8" fill="#00F5FF"/><rect x="160" y="32" width="8" height="8" fill="#00F5FF"/><rect x="168" y="32" width="8" height="8" fill="#00F5FF"/><rect x="176" y="32" width="8" height="8" fill="#00F5FF"/><rect x="192" y="0" width="8" height="8" fill="#00F5FF"/><rect x="200" y="0" width="8" height="8" fill="#00F5FF"/><rect x="192" y="8" width="8" height="8" fill="#00F5FF"/><rect x="208" y="8" width="8" height="8" fill="#00F5FF"/><rect x="192" y="16" width="8" height="8" fill="#00F5FF"/><rect x="208" y="16" width="8" height="8" fill="#00F5FF"/><rect x="192" y="24" width="8" height="8" fill="#00F5FF"/><rect x="208" y="24" width="8" height="8" fill="#00F5FF"/><rect x="192" y="32" width="8" height="8" fill="#00F5FF"/><rect x="200" y="32" width="8" height="8" fill="#00F5FF"/></g><rect x="216" y="0" width="8" height="40" fill="#FF2EC4" opacity="0"><animate attributeName="opacity" values="0;0;1;0;1;0;1;0" keyTimes="0;0.37433;0.37533;0.47517;0.47617;0.57601;0.57701;0.67991" dur="5.24s" repeatCount="indefinite" calcMode="discrete"/></rect></svg>
