<svg xmlns="http://www.w3.org/2000/svg" viewBox="0 0 200 50" shape-rendering="crispEdges"><rect width="200" height="50" fill="#0B0800"/><clipPath id="aclip"><rect x="0" y="0" width="0" height="50"><animate attributeName="width" values="0;30;70;110;150;190;190;0;0" keyTimes="0.00000;0.07910;0.15819;0.23729;0.31638;0.39548;0.84746;0.88701;1.00000" calcMode="discrete" dur="3.54s" repeatCount="indefinite"/></rect></clipPath><g clip-path="url(#aclip)"><rect x="10" y="0" width="10" height="10" fill="#FFB000"/><rect x="0" y="10" width="10" height="10" fill="#FFB000"/><rect x="20" y="10" width="10" height="10" fill="#FFB000"/><rect x="0" y="20" width="10" height="10" fill="#FFB000"/><rect x="10" y="20" width="10" height="10" fill="#FFB000"/><rect x="20" y="20" width="10" height="10" fill="#FFB000"/><rect x="0" y="30" width="10" height="10" fill="#FFB000"/><rect x="20" y="30" width="10" height="10" fill="#FFB000"/><rect x="0" y="40" width="10" height="10" fill="#FFB000"/><rect x="20" y="40" width="10" height="10" fill="#FFB000"/><rect x="40" y="0" width="10" height="10" fill="#FFB000"/><rect x="50" y="0" width="10" height="10" fill="#FFB000"/><rect x="60" y="0" width="10" height="10" fill="#FFB000"/><rect x="40" y="10" width="10" height="10" fill="#FFB000"/><rect x="60" y="10" width="10" height="10" fill="#FFB000"/><rect x="40" y="20" width="10" height="10" fill="#FFB000"/><rect x="50" y="20" width="10" height="10" fill="#FFB000"/><rect x="60" y="20" width="10" height="10" fill="#FFB000"/><rect x="40" y="30" width="10" height="10" fill="#FFB000"/><rect x="60" y="30" width="10" height="10" fill="#FFB000"/><rect x="40" y="40" width="10" height="10" fill="#FFB000"/><rect x="50" y="40" width="10" height="10" fill="#FFB000"/><rect x="60" y="40" width="10" height="10" fill="#FFB000"/><rect x="80" y="0" width="10" height="10" fill="#FFB000"/><rect x="90" y="0" width="10" height="10" fill="#FFB000"/><rect x="80" y="10" width="10" height="10" fill="#FFB000"/><rect x="100" y="10" width="10" height="10" fill="#FFB000"/><rect x="80" y="20" width="10" height="10" fill="#FFB000"/><rect x="100" y="20" width="10" height="10" fill="#FFB000"/><rect x="80" y="30" width="10" height="10" fill="#FFB000"/><rect x="100" y="30" width="10" height="10" fill="#FFB000"/><rect x="80" y="40" width="10" height="10" fill="#FFB000"/><rect x="90" y="40" width="10" height="10" fill="#FFB000"/><rect x="120" y="0" width="10" height="10" fill="#FFB000"/><rect x="140" y="0" width="10" height="10" fill="#FFB000"/><rect x="120" y="10" width="10" height="10" fill="#FFB000"/><rect x="140" y="10" width="10" height="10" fill="#FFB000"/><rect x="120" y="20" width="10" height="10" fill="#FFB000"/><rect x="140" y="20" width="10" height="10" fill="#FFB000"/><rect x="120" y="30" width="10" height="10" fill="#FFB000"/><rect x="140" y="30" width="10" height="10" fill="#FFB000"/><rect x="120" y="40" width="10" height="10" fill="#FFB000"/><rect x="130" y="40" width="10" height="10" fill="#FFB000"/><rect x="140" y="40" width="10" height="10" fill="#FFB000"/><rect x="160" y="0" width="10" height="10" fill="#FFB000"/><rect x="170" y="0" width="10" height="10" fill="#FFB000"/><rect x="180" y="0" width="10" height="10" fill="#FFB000"/><rect x="160" y="10" width="10" height="10" fill="#FFB000"/><rect x="180" y="10" width="10" height="10" fill="#FFB000"/><rect x="160" y="20" width="10" height="10" fill="#FFB000"/><rect x="170" y="20" width="10" height="10" fill="#FFB000"/><rect x="180" y="20" width="10" height="10" fill="#FFB000"/><rect x="160" y="30" width="10" height="10" fill="#FFB000"/><rect x="170" y="30" width="10" height="10" fill="#FFB000"/><rect x="160" y="40" width="10" height="10" fill="#FFB000"/><rect x="180" y="40" width="10" height="10" fill="#FFB000"/></g><rect x="190" y="0" width="10" height="50" fill="#FF6A00" opacity="0"><animate attributeName="opacity" values="0;0;1;0;1;0;1;0" keyTimes="0;0.39548;0.39648;0.54463;0.54563;0.69379;0.69479;0.84746" dur="3.54s" repeatCount="indefinite" calcMode="discrete"/></rect></svg>
