<svg xmlns="http://www.w3.org/2000/svg" viewBox="0 0 237 72" shape-rendering="crispEdges"><clipPath id="lnclip"><rect x="0" y="0" width="0" height="35"><animate attributeName="width" values="0;21;49;77;105;140;168;196;196;168;140;105;77;49;21;0;0" keyTimes="0.00000;0.04272;0.08544;0.12816;0.17087;0.21359;0.25631;0.29903;0.72621;0.75146;0.77670;0.80194;0.82718;0.85243;0.87767;0.90291;1.00000" calcMode="discrete" dur="5.15s" repeatCount="indefinite"/></rect></clipPath><rect x="5" y="5" width="232" height="67" rx="14" fill="#00000022"/><rect x="0" y="0" width="232" height="67" rx="14" fill="#FFFFFF" stroke="#15803D" stroke-width="4"/><g transform="translate(18,16)" clip-path="url(#lnclip)"><rect x="0" y="0" width="7" height="7" fill="#0F172A"/><rect x="0" y="7" width="7" height="7" fill="#0F172A"/><rect x="0" y="14" width="7" height="7" fill="#0F172A"/><rect x="0" y="21" width="7" height="7" fill="#0F172A"/><rect x="0" y="28" width="7" height="7" fill="#0F172A"/><rect x="7" y="28" width="7" height="7" fill="#0F172A"/><rect x="14" y="28" width="7" height="7" fill="#0F172A"/><rect x="28" y="0" width="7" height="7" fill="#0F172A"/><rect x="35" y="0" width="7" height="7" fill="#0F172A"/><rect x="42" y="0" width="7" height="7" fill="#0F172A"/><rect x="28" y="7" width="7" height="7" fill="#0F172A"/><rect x="28" y="14" width="7" height="7" fill="#0F172A"/><rect x="35" y="14" width="7" height="7" fill="#0F172A"/><rect x="42" y="14" width="7" height="7" fill="#0F172A"/><rect x="28" y="21" width="7" height="7" fill="#0F172A"/><rect x="28" y="28" width="7" height="7" fill="#0F172A"/><rect x="35" y="28" width="7" height="7" fill="#0F172A"/><rect x="42" y="28" width="7" height="7" fill="#0F172A"/><rect x="63" y="0" width="7" height="7" fill="#0F172A"/><rect x="56" y="7" width="7" height="7" fill="#0F172A"/><rect x="70" y="7" width="7" height="7" fill="#0F172A"/><rect x="56" y="14" width="7" height="7" fill="#0F172A"/><rect x="63" y="14" width="7" height="7" fill="#0F172A"/><rect x="70" y="14" width="7" height="7" fill="#0F172A"/><rect x="56" y="21" width="7" height="7" fill="#0F172A"/><rect x="70" y="21" width="7" height="7" fill="#0F172A"/><rect x="56" y="28" width="7" height="7" fill="#0F172A"/><rect x="70" y="28" width="7" height="7" fill="#0F172A"/><rect x="84" y="0" width="7" height="7" fill="#0F172A"/><rect x="91" y="0" width="7" height="7" fill="#0F172A"/><rect x="98" y="0" width="7" height="7" fill="#0F172A"/><rect x="84" y="7" width="7" height="7" fill="#0F172A"/><rect x="98" y="7" width="7" height="7" fill="#0F172A"/><rect x="84" y="14" width="7" height="7" fill="#0F172A"/><rect x="91" y="14" width="7" height="7" fill="#0F172A"/><rect x="98" y="14" width="7" height="7" fill="#0F172A"/><rect x="84" y="21" width="7" height="7" fill="#0F172A"/><rect x="91" y="21" width="7" height="7" fill="#0F172A"/><rect x="84" y="28" width="7" height="7" fill="#0F172A"/><rect x="98" y="28" width="7" height="7" fill="#0F172A"/><rect x="112" y="0" width="7" height="7" fill="#0F172A"/><rect x="133" y="0" width="7" height="7" fill="#0F172A"/><rect x="112" y="7" width="7" height="7" fill="#0F172A"/><rect x="119" y="7" width="7" height="7" fill="#0F172A"/><rect x="133" y="7" width="7" height="7" fill="#0F172A"/><rect x="112" y="14" width="7" height="7" fill="#0F172A"/><rect x="126" y="14" width="7" height="7" fill="#0F172A"/><rect x="133" y="14" width="7" height="7" fill="#0F172A"/><rect x="112" y="21" width="7" height="7" fill="#0F172A"/><rect x="133" y="21" width="7" height="7" fill="#0F172A"/><rect x="112" y="28" width="7" height="7" fill="#0F172A"/><rect x="133" y="28" width="7" height="7" fill="#0F172A"/><rect x="147" y="0" width="7" height="7" fill="#0F172A"/><rect x="154" y="0" width="7" height="7" fill="#0F172A"/><rect x="161" y="0" width="7" height="7" fill="#0F172A"/><rect x="147" y="7" width="7" height="7" fill="#0F172A"/><rect x="147" y="14" width="7" height="7" fill="#0F172A"/><rect x="154" y="14" width="7" height="7" fill="#0F172A"/><rect x="161" y="14" width="7" height="7" fill="#0F172A"/><rect x="147" y="21" width="7" height="7" fill="#0F172A"/><rect x="147" y="28" width="7" height="7" fill="#0F172A"/><rect x="154" y="28" width="7" height="7" fill="#0F172A"/><rect x="161" y="28" width="7" height="7" fill="#0F172A"/><rect x="175" y="0" width="7" height="7" fill="#0F172A"/><rect x="182" y="0" width="7" height="7" fill="#0F172A"/><rect x="175" y="7" width="7" height="7" fill="#0F172A"/><rect x="189" y="7" width="7" height="7" fill="#0F172A"/><rect x="175" y="14" width="7" height="7" fill="#0F172A"/><rect x="189" y="14" width="7" height="7" fill="#0F172A"/><rect x="175" y="21" width="7" height="7" fill="#0F172A"/><rect x="189" y="21" width="7" height="7" fill="#0F172A"/><rect x="175" y="28" width="7" height="7" fill="#0F172A"/><rect x="182" y="28" width="7" height="7" fill="#0F172A"/></g><g transform="translate(18,16)"><rect x="196" y="0" width="7" height="35" fill="#39FF14" opacity="0"><animate attributeName="opacity" values="0;0;1;0;1;0;1;0" keyTimes="0;0.29903;0.30003;0.44000;0.44100;0.58097;0.58197;0.72621" dur="5.15s" repeatCount="indefinite" calcMode="discrete"/></rect></g></svg>
