<svg xmlns="http://www.w3.org/2000/svg" viewBox="0 0 128 40" shape-rendering="crispEdges"><clipPath id="wclip"><rect x="0" y="0" width="0" height="40"><animate attributeName="width" values="0;24;56;88;120;120;88;56;24;0;0" keyTimes="0.00000;0.07650;0.15301;0.22951;0.30601;0.68852;0.73224;0.77596;0.81967;0.86339;1.00000" calcMode="discrete" dur="3.66s" repeatCount="indefinite"/></rect></clipPath><g clip-path="url(#wclip)"><rect x="0" y="0" width="8" height="8" fill="#FFB000"/><rect x="16" y="0" width="8" height="8" fill="#FFB000"/><rect x="0" y="8" width="8" height="8" fill="#FFB000"/><rect x="16" y="8" width="8" height="8" fill="#FFB000"/><rect x="0" y="16" width="8" height="8" fill="#FFB000"/><rect x="16" y="16" width="8" height="8" fill="#FFB000"/><rect x="0" y="24" width="8" height="8" fill="#FFB000"/><rect x="8" y="24" width="8" height="8" fill="#FFB000"/><rect x="16" y="24" width="8" height="8" fill="#FFB000"/><rect x="0" y="32" width="8" height="8" fill="#FFB000"/><rect x="16" y="32" width="8" height="8" fill="#FFB000"/><rect x="32" y="0" width="8" height="8" fill="#FFB000"/><rect x="40" y="0" width="8" height="8" fill="#FFB000"/><rect x="48" y="0" width="8" height="8" fill="#FFB000"/><rect x="32" y="8" width="8" height="8" fill="#FFB000"/><rect x="48" y="8" width="8" height="8" fill="#FFB000"/><rect x="32" y="16" width="8" height="8" fill="#FFB000"/><rect x="48" y="16" width="8" height="8" fill="#FFB000"/><rect x="32" y="24" width="8" height="8" fill="#FFB000"/><rect x="48" y="24" width="8" height="8" fill="#FFB000"/><rect x="32" y="32" width="8" height="8" fill="#FFB000"/><rect x="40" y="32" width="8" height="8" fill="#FFB000"/><rect x="48" y="32" width="8" height="8" fill="#FFB000"/><rect x="64" y="0" width="8" height="8" fill="#FFB000"/><rect x="72" y="0" width="8" height="8" fill="#FFB000"/><rect x="80" y="0" width="8" height="8" fill="#FFB000"/><rect x="64" y="8" width="8" height="8" fill="#FFB000"/><rect x="80" y="8" width="8" height="8" fill="#FFB000"/><rect x="64" y="16" width="8" height="8" fill="#FFB000"/><rect x="72" y="16" width="8" height="8" fill="#FFB000"/><rect x="80" y="16" width="8" height="8" fill="#FFB000"/><rect x="64" y="24" width="8" height="8" fill="#FFB000"/><rect x="72" y="24" width="8" height="8" fill="#FFB000"/><rect x="64" y="32" width="8" height="8" fill="#FFB000"/><rect x="80" y="32" width="8" height="8" fill="#FFB000"/><rect x="96" y="0" width="8" height="8" fill="#FFB000"/><rect x="112" y="0" width="8" height="8" fill="#FFB000"/><rect x="96" y="8" width="8" height="8" fill="#FFB000"/><rect x="104" y="8" width="8" height="8" fill="#FFB000"/><rect x="96" y="16" width="8" height="8" fill="#FFB000"/><rect x="96" y="24" width="8" height="8" fill="#FFB000"/><rect x="104" y="24" width="8" height="8" fill="#FFB000"/><rect x="96" y="32" width="8" height="8" fill="#FFB000"/><rect x="112" y="32" width="8" height="8" fill="#FFB000"/></g><rect x="120" y="0" width="8" height="40" fill="#FF6A00" opacity="0"><animate attributeName="opacity" values="0;0;1;0;1;0;1;0" keyTimes="0;0.30601;0.30701;0.43224;0.43324;0.55847;0.55947;0.68852" dur="3.66s" repeatCount="indefinite" calcMode="discrete"/></rect></svg>
