<svg xmlns="http://www.w3.org/2000/svg" viewBox="0 0 160 72" shape-rendering="crispEdges"><clipPath id="wkclip"><rect x="0" y="0" width="0" height="35"><animate attributeName="width" values="0;35;63;91;119;119;91;63;35;0;0" keyTimes="0.00000;0.05366;0.10732;0.16098;0.21463;0.75122;0.78293;0.81463;0.84634;0.87805;1.00000" calcMode="discrete" dur="4.10s" repeatCount="indefinite"/></rect></clipPath><rect x="5" y="5" width="155" height="67" rx="14" fill="#00000022"/><rect x="0" y="0" width="155" height="67" rx="14" fill="#FFFFFF" stroke="#15803D" stroke-width="4"/><g transform="translate(18,16)" clip-path="url(#wkclip)"><rect x="0" y="0" width="7" height="7" fill="#0F172A"/><rect x="28" y="0" width="7" height="7" fill="#0F172A"/><rect x="0" y="7" width="7" height="7" fill="#0F172A"/><rect x="28" y="7" width="7" height="7" fill="#0F172A"/><rect x="0" y="14" width="7" height="7" fill="#0F172A"/><rect x="14" y="14" width="7" height="7" fill="#0F172A"/><rect x="28" y="14" width="7" height="7" fill="#0F172A"/><rect x="0" y="21" width="7" height="7" fill="#0F172A"/><rect x="14" y="21" width="7" height="7" fill="#0F172A"/><rect x="28" y="21" width="7" height="7" fill="#0F172A"/><rect x="7" y="28" width="7" height="7" fill="#0F172A"/><rect x="21" y="28" width="7" height="7" fill="#0F172A"/><rect x="42" y="0" width="7" height="7" fill="#0F172A"/><rect x="49" y="0" width="7" height="7" fill="#0F172A"/><rect x="56" y="0" width="7" height="7" fill="#0F172A"/><rect x="42" y="7" width="7" height="7" fill="#0F172A"/><rect x="56" y="7" width="7" height="7" fill="#0F172A"/><rect x="42" y="14" width="7" height="7" fill="#0F172A"/><rect x="56" y="14" width="7" height="7" fill="#0F172A"/><rect x="42" y="21" width="7" height="7" fill="#0F172A"/><rect x="56" y="21" width="7" height="7" fill="#0F172A"/><rect x="42" y="28" width="7" height="7" fill="#0F172A"/><rect x="49" y="28" width="7" height="7" fill="#0F172A"/><rect x="56" y="28" width="7" height="7" fill="#0F172A"/><rect x="70" y="0" width="7" height="7" fill="#0F172A"/><rect x="77" y="0" width="7" height="7" fill="#0F172A"/><rect x="84" y="0" width="7" height="7" fill="#0F172A"/><rect x="70" y="7" width="7" height="7" fill="#0F172A"/><rect x="84" y="7" width="7" height="7" fill="#0F172A"/><rect x="70" y="14" width="7" height="7" fill="#0F172A"/><rect x="77" y="14" width="7" height="7" fill="#0F172A"/><rect x="84" y="14" width="7" height="7" fill="#0F172A"/><rect x="70" y="21" width="7" height="7" fill="#0F172A"/><rect x="77" y="21" width="7" height="7" fill="#0F172A"/><rect x="70" y="28" width="7" height="7" fill="#0F172A"/><rect x="84" y="28" width="7" height="7" fill="#0F172A"/><rect x="98" y="0" width="7" height="7" fill="#0F172A"/><rect x="112" y="0" width="7" height="7" fill="#0F172A"/><rect x="98" y="7" width="7" height="7" fill="#0F172A"/><rect x="105" y="7" width="7" height="7" fill="#0F172A"/><rect x="98" y="14" width="7" height="7" fill="#0F172A"/><rect x="98" y="21" width="7" height="7" fill="#0F172A"/><rect x="105" y="21" width="7" height="7" fill="#0F172A"/><rect x="98" y="28" width="7" height="7" fill="#0F172A"/><rect x="112" y="28" width="7" height="7" fill="#0F172A"/></g><g transform="translate(18,16)"><rect x="119" y="0" width="7" height="35" fill="#39FF14" opacity="0"><animate attributeName="opacity" values="0;0;1;0;1;0;1;0" keyTimes="0;0.21463;0.21563;0.39171;0.39271;0.56878;0.56978;0.75122" dur="4.10s" repeatCount="indefinite" calcMode="discrete"/></rect></g></svg>
