<svg xmlns="http://www.w3.org/2000/svg" viewBox="0 0 128 40" shape-rendering="crispEdges"><rect width="128" height="40" fill="#0D0221"/><clipPath id="wclip"><rect x="0" y="0" width="0" height="40"><animate attributeName="width" values="0;120;120;0;0" keyTimes="0.00000;0.28777;0.69887;0.87153;1" dur="3.89s" repeatCount="indefinite"/></rect></clipPath><g clip-path="url(#wclip)"><rect x="0" y="0" width="8" height="8" fill="#00F5FF"/><rect x="16" y="0" width="8" height="8" fill="#00F5FF"/><rect x="0" y="8" width="8" height="8" fill="#00F5FF"/><rect x="16" y="8" width="8" height="8" fill="#00F5FF"/><rect x="0" y="16" width="8" height="8" fill="#00F5FF"/><rect x="16" y="16" width="8" height="8" fill="#00F5FF"/><rect x="0" y="24" width="8" height="8" fill="#00F5FF"/><rect x="8" y="24" width="8" height="8" fill="#00F5FF"/><rect x="16" y="24" width="8" height="8" fill="#00F5FF"/><rect x="0" y="32" width="8" height="8" fill="#00F5FF"/><rect x="16" y="32" width="8" height="8" fill="#00F5FF"/><rect x="32" y="0" width="8" height="8" fill="#00F5FF"/><rect x="40" y="0" width="8" height="8" fill="#00F5FF"/><rect x="48" y="0" width="8" height="8" fill="#00F5FF"/><rect x="32" y="8" width="8" height="8" fill="#00F5FF"/><rect x="48" y="8" width="8" height="8" fill="#00F5FF"/><rect x="32" y="16" width="8" height="8" fill="#00F5FF"/><rect x="48" y="16" width="8" height="8" fill="#00F5FF"/><rect x="32" y="24" width="8" height="8" fill="#00F5FF"/><rect x="48" y="24" width="8" height="8" fill="#00F5FF"/><rect x="32" y="32" width="8" height="8" fill="#00F5FF"/><rect x="40" y="32" width="8" height="8" fill="#00F5FF"/><rect x="48" y="32" width="8" height="8" fill="#00F5FF"/><rect x="64" y="0" width="8" height="8" fill="#00F5FF"/><rect x="72" y="0" width="8" height="8" fill="#00F5FF"/><rect x="80" y="0" width="8" height="8" fill="#00F5FF"/><rect x="64" y="8" width="8" height="8" fill="#00F5FF"/><rect x="80" y="8" width="8" height="8" fill="#00F5FF"/><rect x="64" y="16" width="8" height="8" fill="#00F5FF"/><rect x="72" y="16" width="8" height="8" fill="#00F5FF"/><rect x="80" y="16" width="8" height="8" fill="#00F5FF"/><rect x="64" y="24" width="8" height="8" fill="#00F5FF"/><rect x="72" y="24" width="8" height="8" fill="#00F5FF"/><rect x="64" y="32" width="8" height="8" fill="#00F5FF"/><rect x="80" y="32" width="8" height="8" fill="#00F5FF"/><rect x="96" y="0" width="8" height="8" fill="#00F5FF"/><rect x="112" y="0" width="8" height="8" fill="#00F5FF"/><rect x="96" y="8" width="8" height="8" fill="#00F5FF"/><rect x="104" y="8" width="8" height="8" fill="#00F5FF"/><rect x="96" y="16" width="8" height="8" fill="#00F5FF"/><rect x="96" y="24" width="8" height="8" fill="#00F5FF"/><rect x="104" y="24" width="8" height="8" fill="#00F5FF"/><rect x="96" y="32" width="8" height="8" fill="#00F5FF"/><rect x="112" y="32" width="8" height="8" fill="#00F5FF"/></g><rect x="120" y="0" width="8" height="40" fill="#FF2EC4" opacity="0"><animate attributeName="opacity" values="0;0;1;0;1;0;1;0" keyTimes="0;0.28777;0.28877;0.42343;0.42443;0.55910;0.56010;0.69887" dur="3.89s" repeatCount="indefinite" calcMode="discrete"/></rect></svg>
