<svg xmlns="http://www.w3.org/2000/svg" viewBox="0 0 200 50" shape-rendering="crispEdges"><rect width="200" height="50" fill="#0D0221"/><g opacity="0"><rect x="10" y="0" width="10" height="10" fill="#00F5FF"/><rect x="0" y="10" width="10" height="10" fill="#00F5FF"/><rect x="20" y="10" width="10" height="10" fill="#00F5FF"/><rect x="0" y="20" width="10" height="10" fill="#00F5FF"/><rect x="10" y="20" width="10" height="10" fill="#00F5FF"/><rect x="20" y="20" width="10" height="10" fill="#00F5FF"/><rect x="0" y="30" width="10" height="10" fill="#00F5FF"/><rect x="20" y="30" width="10" height="10" fill="#00F5FF"/><rect x="0" y="40" width="10" height="10" fill="#00F5FF"/><rect x="20" y="40" width="10" height="10" fill="#00F5FF"/><animate attributeName="opacity" values="0;0;1;1;1;0" keyTimes="0;0.0000;0.0300;0.8000;0.985;1" dur="4.35s" begin="0s" repeatCount="indefinite"/></g><g opacity="0"><rect x="40" y="0" width="10" height="10" fill="#00F5FF"/><rect x="50" y="0" width="10" height="10" fill="#00F5FF"/><rect x="60" y="0" width="10" height="10" fill="#00F5FF"/><rect x="40" y="10" width="10" height="10" fill="#00F5FF"/><rect x="60" y="10" width="10" height="10" fill="#00F5FF"/><rect x="40" y="20" width="10" height="10" fill="#00F5FF"/><rect x="50" y="20" width="10" height="10" fill="#00F5FF"/><rect x="60" y="20" width="10" height="10" fill="#00F5FF"/><rect x="40" y="30" width="10" height="10" fill="#00F5FF"/><rect x="60" y="30" width="10" height="10" fill="#00F5FF"/><rect x="40" y="40" width="10" height="10" fill="#00F5FF"/><rect x="50" y="40" width="10" height="10" fill="#00F5FF"/><rect x="60" y="40" width="10" height="10" fill="#00F5FF"/><animate attributeName="opacity" values="0;0;1;1;1;0" keyTimes="0;0.2000;0.2300;0.8000;0.985;1" dur="4.35s" begin="0s" repeatCount="indefinite"/></g><g opacity="0"><rect x="80" y="0" width="10" height="10" fill="#00F5FF"/><rect x="90" y="0" width="10" height="10" fill="#00F5FF"/><rect x="80" y="10" width="10" height="10" fill="#00F5FF"/><rect x="100" y="10" width="10" height="10" fill="#00F5FF"/><rect x="80" y="20" width="10" height="10" fill="#00F5FF"/><rect x="100" y="20" width="10" height="10" fill="#00F5FF"/><rect x="80" y="30" width="10" height="10" fill="#00F5FF"/><rect x="100" y="30" width="10" height="10" fill="#00F5FF"/><rect x="80" y="40" width="10" height="10" fill="#00F5FF"/><rect x="90" y="40" width="10" height="10" fill="#00F5FF"/><animate attributeName="opacity" values="0;0;1;1;1;0" keyTimes="0;0.4000;0.4300;0.8000;0.985;1" dur="4.35s" begin="0s" repeatCount="indefinite"/></g><g opacity="0"><rect x="120" y="0" width="10" height="10" fill="#00F5FF"/><rect x="140" y="0" width="10" height="10" fill="#00F5FF"/><rect x="120" y="10" width="10" height="10" fill="#00F5FF"/><rect x="140" y="10" width="10" height="10" fill="#00F5FF"/><rect x="120" y="20" width="10" height="10" fill="#00F5FF"/><rect x="140" y="20" width="10" height="10" fill="#00F5FF"/><rect x="120" y="30" width="10" height="10" fill="#00F5FF"/><rect x="140" y="30" width="10" height="10" fill="#00F5FF"/><rect x="120" y="40" width="10" height="10" fill="#00F5FF"/><rect x="130" y="40" width="10" height="10" fill="#00F5FF"/><rect x="140" y="40" width="10" height="10" fill="#00F5FF"/><animate attributeName="opacity" values="0;0;1;1;1;0" keyTimes="0;0.6000;0.6300;0.8000;0.985;1" dur="4.35s" begin="0s" repeatCount="indefinite"/></g><g opacity="0"><rect x="160" y="0" width="10" height="10" fill="#00F5FF"/><rect x="170" y="0" width="10" height="10" fill="#00F5FF"/><rect x="180" y="0" width="10" height="10" fill="#00F5FF"/><rect x="160" y="10" width="10" height="10" fill="#00F5FF"/><rect x="180" y="10" width="10" height="10" fill="#00F5FF"/><rect x="160" y="20" width="10" height="10" fill="#00F5FF"/><rect x="170" y="20" width="10" height="10" fill="#00F5FF"/><rect x="180" y="20" width="10" height="10" fill="#00F5FF"/><rect x="160" y="30" width="10" height="10" fill="#00F5FF"/><rect x="170" y="30" width="10" height="10" fill="#00F5FF"/><rect x="160" y="40" width="10" height="10" fill="#00F5FF"/><rect x="180" y="40" width="10" height="10" fill="#00F5FF"/><animate attributeName="opacity" values="0;0;1;1;1;0" keyTimes="0;0.8000;0.8300;0.8000;0.985;1" dur="4.35s" begin="0s" repeatCount="indefinite"/></g><rect x="190" y="0" width="10" height="50" fill="#FF2EC4"><animate attributeName="opacity" values="0;0;1;0;1;0;1;0;1;0;0" keyTimes="0;0.4023;0.4138;0.4828;0.4943;0.5632;0.5747;0.6437;0.6552;0.8621;1" dur="4.35s" repeatCount="indefinite"/></rect></svg>
