<svg xmlns="http://www.w3.org/2000/svg" viewBox="0 0 181 72" shape-rendering="crispEdges"><clipPath id="hamclip"><rect x="0" y="0" width="0" height="35"><animate attributeName="width" values="0;28;42;77;91;133;133;91;77;42;28;0;0" keyTimes="0.00000;0.04293;0.08585;0.12878;0.17170;0.21463;0.75122;0.77659;0.80195;0.82732;0.85268;0.87805;1.00000" calcMode="discrete" dur="4.20s" repeatCount="indefinite"/></rect></clipPath><rect x="5" y="5" width="176" height="67" rx="14" fill="#00000022"/><rect x="0" y="0" width="176" height="67" rx="14" fill="#FFFFFF" stroke="#0284C7" stroke-width="4"><animate attributeName="stroke" values="#0284C7;#00E5FF;#39FF14;#00E5FF;#0284C7" keyTimes="0;0.22;0.45;0.70;1" dur="4.2s" repeatCount="indefinite"/><animate attributeName="stroke-width" values="4;4;6;4;4" keyTimes="0;0.36;0.40;0.48;1" dur="4.2s" repeatCount="indefinite"/></rect><g transform="translate(18,16)" clip-path="url(#hamclip)"><rect x="0" y="0" width="7" height="7" fill="#0F172A"/><rect x="21" y="0" width="7" height="7" fill="#0F172A"/><rect x="0" y="7" width="7" height="7" fill="#0F172A"/><rect x="21" y="7" width="7" height="7" fill="#0F172A"/><rect x="0" y="14" width="7" height="7" fill="#0F172A"/><rect x="21" y="14" width="7" height="7" fill="#0F172A"/><rect x="0" y="21" width="7" height="7" fill="#0F172A"/><rect x="21" y="21" width="7" height="7" fill="#0F172A"/><rect x="0" y="28" width="7" height="7" fill="#0F172A"/><rect x="21" y="28" width="7" height="7" fill="#0F172A"/><rect x="7" y="14" width="7" height="7" fill="#0F172A"/><rect x="14" y="14" width="7" height="7" fill="#0F172A"/><rect x="35" y="28" width="7" height="7" fill="#0F172A"/><rect x="56" y="0" width="7" height="7" fill="#0F172A"/><rect x="63" y="0" width="7" height="7" fill="#0F172A"/><rect x="49" y="7" width="7" height="7" fill="#0F172A"/><rect x="70" y="7" width="7" height="7" fill="#0F172A"/><rect x="49" y="14" width="7" height="7" fill="#0F172A"/><rect x="70" y="14" width="7" height="7" fill="#0F172A"/><rect x="49" y="21" width="7" height="7" fill="#0F172A"/><rect x="70" y="21" width="7" height="7" fill="#0F172A"/><rect x="49" y="28" width="7" height="7" fill="#0F172A"/><rect x="70" y="28" width="7" height="7" fill="#0F172A"/><rect x="56" y="14" width="7" height="7" fill="#0F172A"/><rect x="63" y="14" width="7" height="7" fill="#0F172A"/><rect x="84" y="28" width="7" height="7" fill="#0F172A"/><rect x="98" y="0" width="7" height="7" fill="#0F172A"/><rect x="126" y="0" width="7" height="7" fill="#0F172A"/><rect x="98" y="7" width="7" height="7" fill="#0F172A"/><rect x="126" y="7" width="7" height="7" fill="#0F172A"/><rect x="98" y="14" width="7" height="7" fill="#0F172A"/><rect x="126" y="14" width="7" height="7" fill="#0F172A"/><rect x="98" y="21" width="7" height="7" fill="#0F172A"/><rect x="126" y="21" width="7" height="7" fill="#0F172A"/><rect x="98" y="28" width="7" height="7" fill="#0F172A"/><rect x="126" y="28" width="7" height="7" fill="#0F172A"/><rect x="105" y="7" width="7" height="7" fill="#0F172A"/><rect x="112" y="14" width="7" height="7" fill="#0F172A"/><rect x="119" y="7" width="7" height="7" fill="#0F172A"/></g><g transform="translate(18,16)"><rect x="133" y="0" width="7" height="35" fill="#00E5FF" opacity="0"><animate attributeName="opacity" values="0;0;1;0;1;0;1;0" keyTimes="0;0.21463;0.21563;0.39349;0.39449;0.57236;0.57336;0.75122" dur="4.20s" repeatCount="indefinite" calcMode="discrete"/></rect></g></svg>
