<svg xmlns="http://www.w3.org/2000/svg" viewBox="0 0 200 50" shape-rendering="crispEdges"><clipPath id="aclip"><rect x="0" y="0" width="0" height="50"><animate attributeName="width" values="0;30;70;110;150;190;190;150;110;70;30;0;0" keyTimes="0.00000;0.06829;0.13659;0.20488;0.27317;0.34146;0.68293;0.72195;0.76098;0.80000;0.83902;0.87805;1.00000" calcMode="discrete" dur="4.10s" repeatCount="indefinite"/></rect></clipPath><g clip-path="url(#aclip)"><rect x="10" y="0" width="10" height="10" fill="#FFB000"/><rect x="0" y="10" width="10" height="10" fill="#FFB000"/><rect x="20" y="10" width="10" height="10" fill="#FFB000"/><rect x="0" y="20" width="10" height="10" fill="#FFB000"/><rect x="10" y="20" width="10" height="10" fill="#FFB000"/><rect x="20" y="20" width="10" height="10" fill="#FFB000"/><rect x="0" y="30" width="10" height="10" fill="#FFB000"/><rect x="20" y="30" width="10" height="10" fill="#FFB000"/><rect x="0" y="40" width="10" height="10" fill="#FFB000"/><rect x="20" y="40" width="10" height="10" fill="#FFB000"/><rect x="40" y="0" width="10" height="10" fill="#FFB000"/><rect x="50" y="0" width="10" height="10" fill="#FFB000"/><rect x="60" y="0" width="10" height="10" fill="#FFB000"/><rect x="40" y="10" width="10" height="10" fill="#FFB000"/><rect x="60" y="10" width="10" height="10" fill="#FFB000"/><rect x="40" y="20" width="10" height="10" fill="#FFB000"/><rect x="50" y="20" width="10" height="10" fill="#FFB000"/><rect x="60" y="20" width="10" height="10" fill="#FFB000"/><rect x="40" y="30" width="10" height="10" fill="#FFB000"/><rect x="60" y="30" width="10" height="10" fill="#FFB000"/><rect x="40" y="40" width="10" height="10" fill="#FFB000"/><rect x="50" y="40" width="10" height="10" fill="#FFB000"/><rect x="60" y="40" width="10" height="10" fill="#FFB000"/><rect x="80" y="0" width="10" height="10" fill="#FFB000"/><rect x="90" y="0" width="10" height="10" fill="#FFB000"/><rect x="80" y="10" width="10" height="10" fill="#FFB000"/><rect x="100" y="10" width="10" height="10" fill="#FFB000"/><rect x="80" y="20" width="10" height="10" fill="#FFB000"/><rect x="100" y="20" width="10" height="10" fill="#FFB000"/><rect x="80" y="30" width="10" height="10" fill="#FFB000"/><rect x="100" y="30" width="10" height="10" fill="#FFB000"/><rect x="80" y="40" width="10" height="10" fill="#FFB000"/><rect x="90" y="40" width="10" height="10" fill="#FFB000"/><rect x="120" y="0" width="10" height="10" fill="#FFB000"/><rect x="140" y="0" width="10" height="10" fill="#FFB000"/><rect x="120" y="10" width="10" height="10" fill="#FFB000"/><rect x="140" y="10" width="10" height="10" fill="#FFB000"/><rect x="120" y="20" width="10" height="10" fill="#FFB000"/><rect x="140" y="20" width="10" height="10" fill="#FFB000"/><rect x="120" y="30" width="10" height="10" fill="#FFB000"/><rect x="140" y="30" width="10" height="10" fill="#FFB000"/><rect x="120" y="40" width="10" height="10" fill="#FFB000"/><rect x="130" y="40" width="10" height="10" fill="#FFB000"/><rect x="140" y="40" width="10" height="10" fill="#FFB000"/><rect x="160" y="0" width="10" height="10" fill="#FFB000"/><rect x="170" y="0" width="10" height="10" fill="#FFB000"/><rect x="180" y="0" width="10" height="10" fill="#FFB000"/><rect x="160" y="10" width="10" height="10" fill="#FFB000"/><rect x="180" y="10" width="10" height="10" fill="#FFB000"/><rect x="160" y="20" width="10" height="10" fill="#FFB000"/><rect x="170" y="20" width="10" height="10" fill="#FFB000"/><rect x="180" y="20" width="10" height="10" fill="#FFB000"/><rect x="160" y="30" width="10" height="10" fill="#FFB000"/><rect x="170" y="30" width="10" height="10" fill="#FFB000"/><rect x="160" y="40" width="10" height="10" fill="#FFB000"/><rect x="180" y="40" width="10" height="10" fill="#FFB000"/></g><rect x="190" y="0" width="10" height="50" fill="#FF6A00" opacity="0"><animate attributeName="opacity" values="0;0;1;0;1;0;1;0" keyTimes="0;0.34146;0.34246;0.45415;0.45515;0.56683;0.56783;0.68293" dur="4.10s" repeatCount="indefinite" calcMode="discrete"/></rect></svg>
