<svg xmlns="http://www.w3.org/2000/svg" viewBox="0 0 188 72" shape-rendering="crispEdges"><clipPath id="hamclip"><rect x="0" y="0" width="0" height="35"><animate attributeName="width" values="0;28;42;77;91;133;133;91;77;42;28;0;0" keyTimes="0.00000;0.04400;0.08800;0.13200;0.17600;0.22000;0.75000;0.77600;0.80200;0.82800;0.85400;0.88000;1.00000" calcMode="discrete" dur="4.20s" repeatCount="indefinite"/></rect></clipPath><rect x="5" y="5" width="183" height="67" rx="14" fill="#00000022"/><rect x="0" y="0" width="183" height="67" rx="14" fill="#FFFFFF" stroke="#15803D" stroke-width="4"/><g transform="translate(18,16)" clip-path="url(#hamclip)"><rect x="0" y="0" width="7" height="7" fill="#0F172A"/><rect x="21" y="0" width="7" height="7" fill="#0F172A"/><rect x="0" y="7" width="7" height="7" fill="#0F172A"/><rect x="21" y="7" width="7" height="7" fill="#0F172A"/><rect x="0" y="14" width="7" height="7" fill="#0F172A"/><rect x="21" y="14" width="7" height="7" fill="#0F172A"/><rect x="0" y="21" width="7" height="7" fill="#0F172A"/><rect x="21" y="21" width="7" height="7" fill="#0F172A"/><rect x="0" y="28" width="7" height="7" fill="#0F172A"/><rect x="21" y="28" width="7" height="7" fill="#0F172A"/><rect x="7" y="14" width="7" height="7" fill="#0F172A"/><rect x="14" y="14" width="7" height="7" fill="#0F172A"/><rect x="35" y="28" width="7" height="7" fill="#0F172A"/><rect x="56" y="0" width="7" height="7" fill="#0F172A"/><rect x="63" y="0" width="7" height="7" fill="#0F172A"/><rect x="49" y="7" width="7" height="7" fill="#0F172A"/><rect x="70" y="7" width="7" height="7" fill="#0F172A"/><rect x="49" y="14" width="7" height="7" fill="#0F172A"/><rect x="70" y="14" width="7" height="7" fill="#0F172A"/><rect x="49" y="21" width="7" height="7" fill="#0F172A"/><rect x="70" y="21" width="7" height="7" fill="#0F172A"/><rect x="49" y="28" width="7" height="7" fill="#0F172A"/><rect x="70" y="28" width="7" height="7" fill="#0F172A"/><rect x="56" y="14" width="7" height="7" fill="#0F172A"/><rect x="63" y="14" width="7" height="7" fill="#0F172A"/><rect x="84" y="28" width="7" height="7" fill="#0F172A"/><rect x="98" y="0" width="7" height="7" fill="#0F172A"/><rect x="126" y="0" width="7" height="7" fill="#0F172A"/><rect x="98" y="7" width="7" height="7" fill="#0F172A"/><rect x="126" y="7" width="7" height="7" fill="#0F172A"/><rect x="98" y="14" width="7" height="7" fill="#0F172A"/><rect x="126" y="14" width="7" height="7" fill="#0F172A"/><rect x="98" y="21" width="7" height="7" fill="#0F172A"/><rect x="126" y="21" width="7" height="7" fill="#0F172A"/><rect x="98" y="28" width="7" height="7" fill="#0F172A"/><rect x="126" y="28" width="7" height="7" fill="#0F172A"/><rect x="105" y="7" width="7" height="7" fill="#0F172A"/><rect x="112" y="14" width="7" height="7" fill="#0F172A"/><rect x="119" y="7" width="7" height="7" fill="#0F172A"/><rect x="140" y="0" width="7" height="7" fill="#39FF14"><animate attributeName="opacity" values="1;0.15;1" dur="1.4s" repeatCount="indefinite"/></rect></g></svg>
