<svg xmlns="http://www.w3.org/2000/svg" viewBox="0 0 128 40" shape-rendering="crispEdges"><rect width="128" height="40" fill="#0D0221"/><g opacity="0"><rect x="0" y="0" width="8" height="8" fill="#00F5FF"/><rect x="16" y="0" width="8" height="8" fill="#00F5FF"/><rect x="0" y="8" width="8" height="8" fill="#00F5FF"/><rect x="16" y="8" width="8" height="8" fill="#00F5FF"/><rect x="0" y="16" width="8" height="8" fill="#00F5FF"/><rect x="16" y="16" width="8" height="8" fill="#00F5FF"/><rect x="0" y="24" width="8" height="8" fill="#00F5FF"/><rect x="8" y="24" width="8" height="8" fill="#00F5FF"/><rect x="16" y="24" width="8" height="8" fill="#00F5FF"/><rect x="0" y="32" width="8" height="8" fill="#00F5FF"/><rect x="16" y="32" width="8" height="8" fill="#00F5FF"/><animate attributeName="opacity" values="0;0;1;1;1;0" keyTimes="0;0.0000;0.0375;0.7500;0.985;1" dur="4.00s" begin="0s" repeatCount="indefinite"/></g><g opacity="0"><rect x="32" y="0" width="8" height="8" fill="#00F5FF"/><rect x="40" y="0" width="8" height="8" fill="#00F5FF"/><rect x="48" y="0" width="8" height="8" fill="#00F5FF"/><rect x="32" y="8" width="8" height="8" fill="#00F5FF"/><rect x="48" y="8" width="8" height="8" fill="#00F5FF"/><rect x="32" y="16" width="8" height="8" fill="#00F5FF"/><rect x="48" y="16" width="8" height="8" fill="#00F5FF"/><rect x="32" y="24" width="8" height="8" fill="#00F5FF"/><rect x="48" y="24" width="8" height="8" fill="#00F5FF"/><rect x="32" y="32" width="8" height="8" fill="#00F5FF"/><rect x="40" y="32" width="8" height="8" fill="#00F5FF"/><rect x="48" y="32" width="8" height="8" fill="#00F5FF"/><animate attributeName="opacity" values="0;0;1;1;1;0" keyTimes="0;0.2500;0.2875;0.7500;0.985;1" dur="4.00s" begin="0s" repeatCount="indefinite"/></g><g opacity="0"><rect x="64" y="0" width="8" height="8" fill="#00F5FF"/><rect x="72" y="0" width="8" height="8" fill="#00F5FF"/><rect x="80" y="0" width="8" height="8" fill="#00F5FF"/><rect x="64" y="8" width="8" height="8" fill="#00F5FF"/><rect x="80" y="8" width="8" height="8" fill="#00F5FF"/><rect x="64" y="16" width="8" height="8" fill="#00F5FF"/><rect x="72" y="16" width="8" height="8" fill="#00F5FF"/><rect x="80" y="16" width="8" height="8" fill="#00F5FF"/><rect x="64" y="24" width="8" height="8" fill="#00F5FF"/><rect x="72" y="24" width="8" height="8" fill="#00F5FF"/><rect x="64" y="32" width="8" height="8" fill="#00F5FF"/><rect x="80" y="32" width="8" height="8" fill="#00F5FF"/><animate attributeName="opacity" values="0;0;1;1;1;0" keyTimes="0;0.5000;0.5375;0.7500;0.985;1" dur="4.00s" begin="0s" repeatCount="indefinite"/></g><g opacity="0"><rect x="96" y="0" width="8" height="8" fill="#00F5FF"/><rect x="112" y="0" width="8" height="8" fill="#00F5FF"/><rect x="96" y="8" width="8" height="8" fill="#00F5FF"/><rect x="104" y="8" width="8" height="8" fill="#00F5FF"/><rect x="96" y="16" width="8" height="8" fill="#00F5FF"/><rect x="96" y="24" width="8" height="8" fill="#00F5FF"/><rect x="104" y="24" width="8" height="8" fill="#00F5FF"/><rect x="96" y="32" width="8" height="8" fill="#00F5FF"/><rect x="112" y="32" width="8" height="8" fill="#00F5FF"/><animate attributeName="opacity" values="0;0;1;1;1;0" keyTimes="0;0.7500;0.7875;0.7500;0.985;1" dur="4.00s" begin="0s" repeatCount="indefinite"/></g><rect x="120" y="0" width="8" height="40" fill="#FF2EC4"><animate attributeName="opacity" values="0;0;1;0;1;0;1;0;1;0;0" keyTimes="0;0.3500;0.3625;0.4375;0.4500;0.5250;0.5375;0.6125;0.6250;0.8500;1" dur="4.00s" repeatCount="indefinite"/></rect></svg>
