<svg xmlns="http://www.w3.org/2000/svg" viewBox="0 0 120 40" shape-rendering="crispEdges">
  <rect width="120" height="40" fill="#0D0221"/>
  <rect x="0" y="0" width="8" height="8" fill="#00F5FF"/><rect x="16" y="0" width="8" height="8" fill="#00F5FF"/><rect x="0" y="8" width="8" height="8" fill="#00F5FF"/><rect x="16" y="8" width="8" height="8" fill="#00F5FF"/><rect x="0" y="16" width="8" height="8" fill="#00F5FF"/><rect x="16" y="16" width="8" height="8" fill="#00F5FF"/><rect x="0" y="24" width="8" height="8" fill="#00F5FF"/><rect x="8" y="24" width="8" height="8" fill="#00F5FF"/><rect x="16" y="24" width="8" height="8" fill="#00F5FF"/><rect x="0" y="32" width="8" height="8" fill="#00F5FF"/><rect x="16" y="32" width="8" height="8" fill="#00F5FF"/><rect x="32" y="0" width="8" height="8" fill="#00F5FF"/><rect x="40" y="0" width="8" height="8" fill="#00F5FF"/><rect x="48" y="0" width="8" height="8" fill="#00F5FF"/><rect x="32" y="8" width="8" height="8" fill="#00F5FF"/><rect x="48" y="8" width="8" height="8" fill="#00F5FF"/><rect x="32" y="16" width="8" height="8" fill="#00F5FF"/><rect x="48" y="16" width="8" height="8" fill="#00F5FF"/><rect x="32" y="24" width="8" height="8" fill="#00F5FF"/><rect x="48" y="24" width="8" height="8" fill="#00F5FF"/><rect x="32" y="32" width="8" height="8" fill="#00F5FF"/><rect x="40" y="32" width="8" height="8" fill="#00F5FF"/><rect x="48" y="32" width="8" height="8" fill="#00F5FF"/><rect x="64" y="0" width="8" height="8" fill="#00F5FF"/><rect x="72" y="0" width="8" height="8" fill="#00F5FF"/><rect x="80" y="0" width="8" height="8" fill="#00F5FF"/><rect x="64" y="8" width="8" height="8" fill="#00F5FF"/><rect x="80" y="8" width="8" height="8" fill="#00F5FF"/><rect x="64" y="16" width="8" height="8" fill="#00F5FF"/><rect x="72" y="16" width="8" height="8" fill="#00F5FF"/><rect x="80" y="16" width="8" height="8" fill="#00F5FF"/><rect x="64" y="24" width="8" height="8" fill="#00F5FF"/><rect x="72" y="24" width="8" height="8" fill="#00F5FF"/><rect x="64" y="32" width="8" height="8" fill="#00F5FF"/><rect x="80" y="32" width="8" height="8" fill="#00F5FF"/><rect x="96" y="0" width="8" height="8" fill="#00F5FF"/><rect x="112" y="0" width="8" height="8" fill="#00F5FF"/><rect x="96" y="8" width="8" height="8" fill="#00F5FF"/><rect x="104" y="8" width="8" height="8" fill="#00F5FF"/><rect x="96" y="16" width="8" height="8" fill="#00F5FF"/><rect x="96" y="24" width="8" height="8" fill="#00F5FF"/><rect x="104" y="24" width="8" height="8" fill="#00F5FF"/><rect x="96" y="32" width="8" height="8" fill="#00F5FF"/><rect x="112" y="32" width="8" height="8" fill="#00F5FF"/>
  <rect x="112" y="0" width="8" height="40" fill="#FF2EC4">
    <animate attributeName="opacity" values="0;1;0" dur="1.2s" repeatCount="indefinite"/>
  </rect>
</svg>
