<svg xmlns="http://www.w3.org/2000/svg" viewBox="0 0 190 50" shape-rendering="crispEdges"><rect width="190" height="50" fill="#0D0221"/><g fill="#00F5FF"><rect x="10" y="0" width="10" height="10" fill="inherit"/><rect x="0" y="10" width="10" height="10" fill="inherit"/><rect x="20" y="10" width="10" height="10" fill="inherit"/><rect x="0" y="20" width="10" height="10" fill="inherit"/><rect x="10" y="20" width="10" height="10" fill="inherit"/><rect x="20" y="20" width="10" height="10" fill="inherit"/><rect x="0" y="30" width="10" height="10" fill="inherit"/><rect x="20" y="30" width="10" height="10" fill="inherit"/><rect x="0" y="40" width="10" height="10" fill="inherit"/><rect x="20" y="40" width="10" height="10" fill="inherit"/><animate attributeName="fill" values="#00F5FF;#FF2EC4;#00F5FF" dur="2.4s" begin="0.00s" repeatCount="indefinite"/></g><g fill="#00F5FF"><rect x="40" y="0" width="10" height="10" fill="inherit"/><rect x="50" y="0" width="10" height="10" fill="inherit"/><rect x="60" y="0" width="10" height="10" fill="inherit"/><rect x="40" y="10" width="10" height="10" fill="inherit"/><rect x="60" y="10" width="10" height="10" fill="inherit"/><rect x="40" y="20" width="10" height="10" fill="inherit"/><rect x="50" y="20" width="10" height="10" fill="inherit"/><rect x="60" y="20" width="10" height="10" fill="inherit"/><rect x="40" y="30" width="10" height="10" fill="inherit"/><rect x="60" y="30" width="10" height="10" fill="inherit"/><rect x="40" y="40" width="10" height="10" fill="inherit"/><rect x="50" y="40" width="10" height="10" fill="inherit"/><rect x="60" y="40" width="10" height="10" fill="inherit"/><animate attributeName="fill" values="#00F5FF;#FF2EC4;#00F5FF" dur="2.4s" begin="0.12s" repeatCount="indefinite"/></g><g fill="#00F5FF"><rect x="80" y="0" width="10" height="10" fill="inherit"/><rect x="90" y="0" width="10" height="10" fill="inherit"/><rect x="80" y="10" width="10" height="10" fill="inherit"/><rect x="100" y="10" width="10" height="10" fill="inherit"/><rect x="80" y="20" width="10" height="10" fill="inherit"/><rect x="100" y="20" width="10" height="10" fill="inherit"/><rect x="80" y="30" width="10" height="10" fill="inherit"/><rect x="100" y="30" width="10" height="10" fill="inherit"/><rect x="80" y="40" width="10" height="10" fill="inherit"/><rect x="90" y="40" width="10" height="10" fill="inherit"/><animate attributeName="fill" values="#00F5FF;#FF2EC4;#00F5FF" dur="2.4s" begin="0.24s" repeatCount="indefinite"/></g><g fill="#00F5FF"><rect x="120" y="0" width="10" height="10" fill="inherit"/><rect x="140" y="0" width="10" height="10" fill="inherit"/><rect x="120" y="10" width="10" height="10" fill="inherit"/><rect x="140" y="10" width="10" height="10" fill="inherit"/><rect x="120" y="20" width="10" height="10" fill="inherit"/><rect x="140" y="20" width="10" height="10" fill="inherit"/><rect x="120" y="30" width="10" height="10" fill="inherit"/><rect x="140" y="30" width="10" height="10" fill="inherit"/><rect x="120" y="40" width="10" height="10" fill="inherit"/><rect x="130" y="40" width="10" height="10" fill="inherit"/><rect x="140" y="40" width="10" height="10" fill="inherit"/><animate attributeName="fill" values="#00F5FF;#FF2EC4;#00F5FF" dur="2.4s" begin="0.36s" repeatCount="indefinite"/></g><g fill="#00F5FF"><rect x="160" y="0" width="10" height="10" fill="inherit"/><rect x="170" y="0" width="10" height="10" fill="inherit"/><rect x="180" y="0" width="10" height="10" fill="inherit"/><rect x="160" y="10" width="10" height="10" fill="inherit"/><rect x="180" y="10" width="10" height="10" fill="inherit"/><rect x="160" y="20" width="10" height="10" fill="inherit"/><rect x="170" y="20" width="10" height="10" fill="inherit"/><rect x="180" y="20" width="10" height="10" fill="inherit"/><rect x="160" y="30" width="10" height="10" fill="inherit"/><rect x="170" y="30" width="10" height="10" fill="inherit"/><rect x="160" y="40" width="10" height="10" fill="inherit"/><rect x="180" y="40" width="10" height="10" fill="inherit"/><animate attributeName="fill" values="#00F5FF;#FF2EC4;#00F5FF" dur="2.4s" begin="0.48s" repeatCount="indefinite"/></g><rect x="180" y="0" width="10" height="50" fill="#FF2EC4"><animate attributeName="opacity" values="0;1;0" dur="1.1s" repeatCount="indefinite"/></rect><rect x="0" y="-15" width="190" height="15" fill="#FFFFFF" opacity="0.35"><animate attributeName="y" values="-15;50" dur="2.6s" repeatCount="indefinite"/></rect></svg>
