<svg xmlns="http://www.w3.org/2000/svg" viewBox="0 0 224 40" shape-rendering="crispEdges"><rect width="224" height="40" fill="#0B0800"/><clipPath id="lclip"><rect x="0" y="0" width="0" height="40"><animate attributeName="width" values="0;24;56;88;120;152;184;216;216;184;152;120;88;56;24;0;0" keyTimes="0.00000;0.05622;0.11245;0.16867;0.22490;0.28112;0.33735;0.39357;0.67470;0.70683;0.73896;0.77108;0.80321;0.83534;0.86747;0.89960;1.00000" calcMode="discrete" dur="4.98s" repeatCount="indefinite"/></rect></clipPath><g clip-path="url(#lclip)"><rect x="0" y="0" width="8" height="8" fill="#FFB000"/><rect x="0" y="8" width="8" height="8" fill="#FFB000"/><rect x="0" y="16" width="8" height="8" fill="#FFB000"/><rect x="0" y="24" width="8" height="8" fill="#FFB000"/><rect x="0" y="32" width="8" height="8" fill="#FFB000"/><rect x="8" y="32" width="8" height="8" fill="#FFB000"/><rect x="16" y="32" width="8" height="8" fill="#FFB000"/><rect x="32" y="0" width="8" height="8" fill="#FFB000"/><rect x="40" y="0" width="8" height="8" fill="#FFB000"/><rect x="48" y="0" width="8" height="8" fill="#FFB000"/><rect x="32" y="8" width="8" height="8" fill="#FFB000"/><rect x="32" y="16" width="8" height="8" fill="#FFB000"/><rect x="40" y="16" width="8" height="8" fill="#FFB000"/><rect x="48" y="16" width="8" height="8" fill="#FFB000"/><rect x="32" y="24" width="8" height="8" fill="#FFB000"/><rect x="32" y="32" width="8" height="8" fill="#FFB000"/><rect x="40" y="32" width="8" height="8" fill="#FFB000"/><rect x="48" y="32" width="8" height="8" fill="#FFB000"/><rect x="72" y="0" width="8" height="8" fill="#FFB000"/><rect x="64" y="8" width="8" height="8" fill="#FFB000"/><rect x="80" y="8" width="8" height="8" fill="#FFB000"/><rect x="64" y="16" width="8" height="8" fill="#FFB000"/><rect x="72" y="16" width="8" height="8" fill="#FFB000"/><rect x="80" y="16" width="8" height="8" fill="#FFB000"/><rect x="64" y="24" width="8" height="8" fill="#FFB000"/><rect x="80" y="24" width="8" height="8" fill="#FFB000"/><rect x="64" y="32" width="8" height="8" fill="#FFB000"/><rect x="80" y="32" width="8" height="8" fill="#FFB000"/><rect x="96" y="0" width="8" height="8" fill="#FFB000"/><rect x="104" y="0" width="8" height="8" fill="#FFB000"/><rect x="112" y="0" width="8" height="8" fill="#FFB000"/><rect x="96" y="8" width="8" height="8" fill="#FFB000"/><rect x="112" y="8" width="8" height="8" fill="#FFB000"/><rect x="96" y="16" width="8" height="8" fill="#FFB000"/><rect x="104" y="16" width="8" height="8" fill="#FFB000"/><rect x="112" y="16" width="8" height="8" fill="#FFB000"/><rect x="96" y="24" width="8" height="8" fill="#FFB000"/><rect x="104" y="24" width="8" height="8" fill="#FFB000"/><rect x="96" y="32" width="8" height="8" fill="#FFB000"/><rect x="112" y="32" width="8" height="8" fill="#FFB000"/><rect x="128" y="0" width="8" height="8" fill="#FFB000"/><rect x="144" y="0" width="8" height="8" fill="#FFB000"/><rect x="128" y="8" width="8" height="8" fill="#FFB000"/><rect x="136" y="8" width="8" height="8" fill="#FFB000"/><rect x="144" y="8" width="8" height="8" fill="#FFB000"/><rect x="128" y="16" width="8" height="8" fill="#FFB000"/><rect x="136" y="16" width="8" height="8" fill="#FFB000"/><rect x="144" y="16" width="8" height="8" fill="#FFB000"/><rect x="128" y="24" width="8" height="8" fill="#FFB000"/><rect x="144" y="24" width="8" height="8" fill="#FFB000"/><rect x="128" y="32" width="8" height="8" fill="#FFB000"/><rect x="144" y="32" width="8" height="8" fill="#FFB000"/><rect x="160" y="0" width="8" height="8" fill="#FFB000"/><rect x="168" y="0" width="8" height="8" fill="#FFB000"/><rect x="176" y="0" width="8" height="8" fill="#FFB000"/><rect x="160" y="8" width="8" height="8" fill="#FFB000"/><rect x="160" y="16" width="8" height="8" fill="#FFB000"/><rect x="168" y="16" width="8" height="8" fill="#FFB000"/><rect x="176" y="16" width="8" height="8" fill="#FFB000"/><rect x="160" y="24" width="8" height="8" fill="#FFB000"/><rect x="160" y="32" width="8" height="8" fill="#FFB000"/><rect x="168" y="32" width="8" height="8" fill="#FFB000"/><rect x="176" y="32" width="8" height="8" fill="#FFB000"/><rect x="192" y="0" width="8" height="8" fill="#FFB000"/><rect x="200" y="0" width="8" height="8" fill="#FFB000"/><rect x="192" y="8" width="8" height="8" fill="#FFB000"/><rect x="208" y="8" width="8" height="8" fill="#FFB000"/><rect x="192" y="16" width="8" height="8" fill="#FFB000"/><rect x="208" y="16" width="8" height="8" fill="#FFB000"/><rect x="192" y="24" width="8" height="8" fill="#FFB000"/><rect x="208" y="24" width="8" height="8" fill="#FFB000"/><rect x="192" y="32" width="8" height="8" fill="#FFB000"/><rect x="200" y="32" width="8" height="8" fill="#FFB000"/></g><rect x="216" y="0" width="8" height="40" fill="#FF6A00" opacity="0"><animate attributeName="opacity" values="0;0;1;0;1;0;1;0" keyTimes="0;0.39357;0.39457;0.48635;0.48735;0.57912;0.58012;0.67470" dur="4.98s" repeatCount="indefinite" calcMode="discrete"/></rect></svg>
