<svg xmlns="http://www.w3.org/2000/svg" viewBox="0 0 224 40" shape-rendering="crispEdges"><rect width="224" height="40" fill="#0D0221"/><g opacity="0"><rect x="0" y="0" width="8" height="8" fill="#00F5FF"/><rect x="0" y="8" width="8" height="8" fill="#00F5FF"/><rect x="0" y="16" width="8" height="8" fill="#00F5FF"/><rect x="0" y="24" width="8" height="8" fill="#00F5FF"/><rect x="0" y="32" width="8" height="8" fill="#00F5FF"/><rect x="8" y="32" width="8" height="8" fill="#00F5FF"/><rect x="16" y="32" width="8" height="8" fill="#00F5FF"/><animate attributeName="opacity" values="0;0;1;1;1;0" keyTimes="0;0.0000;0.0214;0.8571;0.985;1" dur="5.05s" begin="0s" repeatCount="indefinite"/></g><g opacity="0"><rect x="32" y="0" width="8" height="8" fill="#00F5FF"/><rect x="40" y="0" width="8" height="8" fill="#00F5FF"/><rect x="48" y="0" width="8" height="8" fill="#00F5FF"/><rect x="32" y="8" width="8" height="8" fill="#00F5FF"/><rect x="32" y="16" width="8" height="8" fill="#00F5FF"/><rect x="40" y="16" width="8" height="8" fill="#00F5FF"/><rect x="48" y="16" width="8" height="8" fill="#00F5FF"/><rect x="32" y="24" width="8" height="8" fill="#00F5FF"/><rect x="32" y="32" width="8" height="8" fill="#00F5FF"/><rect x="40" y="32" width="8" height="8" fill="#00F5FF"/><rect x="48" y="32" width="8" height="8" fill="#00F5FF"/><animate attributeName="opacity" values="0;0;1;1;1;0" keyTimes="0;0.1429;0.1643;0.8571;0.985;1" dur="5.05s" begin="0s" repeatCount="indefinite"/></g><g opacity="0"><rect x="72" y="0" width="8" height="8" fill="#00F5FF"/><rect x="64" y="8" width="8" height="8" fill="#00F5FF"/><rect x="80" y="8" width="8" height="8" fill="#00F5FF"/><rect x="64" y="16" width="8" height="8" fill="#00F5FF"/><rect x="72" y="16" width="8" height="8" fill="#00F5FF"/><rect x="80" y="16" width="8" height="8" fill="#00F5FF"/><rect x="64" y="24" width="8" height="8" fill="#00F5FF"/><rect x="80" y="24" width="8" height="8" fill="#00F5FF"/><rect x="64" y="32" width="8" height="8" fill="#00F5FF"/><rect x="80" y="32" width="8" height="8" fill="#00F5FF"/><animate attributeName="opacity" values="0;0;1;1;1;0" keyTimes="0;0.2857;0.3071;0.8571;0.985;1" dur="5.05s" begin="0s" repeatCount="indefinite"/></g><g opacity="0"><rect x="96" y="0" width="8" height="8" fill="#00F5FF"/><rect x="104" y="0" width="8" height="8" fill="#00F5FF"/><rect x="112" y="0" width="8" height="8" fill="#00F5FF"/><rect x="96" y="8" width="8" height="8" fill="#00F5FF"/><rect x="112" y="8" width="8" height="8" fill="#00F5FF"/><rect x="96" y="16" width="8" height="8" fill="#00F5FF"/><rect x="104" y="16" width="8" height="8" fill="#00F5FF"/><rect x="112" y="16" width="8" height="8" fill="#00F5FF"/><rect x="96" y="24" width="8" height="8" fill="#00F5FF"/><rect x="104" y="24" width="8" height="8" fill="#00F5FF"/><rect x="96" y="32" width="8" height="8" fill="#00F5FF"/><rect x="112" y="32" width="8" height="8" fill="#00F5FF"/><animate attributeName="opacity" values="0;0;1;1;1;0" keyTimes="0;0.4286;0.4500;0.8571;0.985;1" dur="5.05s" begin="0s" repeatCount="indefinite"/></g><g opacity="0"><rect x="128" y="0" width="8" height="8" fill="#00F5FF"/><rect x="144" y="0" width="8" height="8" fill="#00F5FF"/><rect x="128" y="8" width="8" height="8" fill="#00F5FF"/><rect x="136" y="8" width="8" height="8" fill="#00F5FF"/><rect x="144" y="8" width="8" height="8" fill="#00F5FF"/><rect x="128" y="16" width="8" height="8" fill="#00F5FF"/><rect x="136" y="16" width="8" height="8" fill="#00F5FF"/><rect x="144" y="16" width="8" height="8" fill="#00F5FF"/><rect x="128" y="24" width="8" height="8" fill="#00F5FF"/><rect x="144" y="24" width="8" height="8" fill="#00F5FF"/><rect x="128" y="32" width="8" height="8" fill="#00F5FF"/><rect x="144" y="32" width="8" height="8" fill="#00F5FF"/><animate attributeName="opacity" values="0;0;1;1;1;0" keyTimes="0;0.5714;0.5929;0.8571;0.985;1" dur="5.05s" begin="0s" repeatCount="indefinite"/></g><g opacity="0"><rect x="160" y="0" width="8" height="8" fill="#00F5FF"/><rect x="168" y="0" width="8" height="8" fill="#00F5FF"/><rect x="176" y="0" width="8" height="8" fill="#00F5FF"/><rect x="160" y="8" width="8" height="8" fill="#00F5FF"/><rect x="160" y="16" width="8" height="8" fill="#00F5FF"/><rect x="168" y="16" width="8" height="8" fill="#00F5FF"/><rect x="176" y="16" width="8" height="8" fill="#00F5FF"/><rect x="160" y="24" width="8" height="8" fill="#00F5FF"/><rect x="160" y="32" width="8" height="8" fill="#00F5FF"/><rect x="168" y="32" width="8" height="8" fill="#00F5FF"/><rect x="176" y="32" width="8" height="8" fill="#00F5FF"/><animate attributeName="opacity" values="0;0;1;1;1;0" keyTimes="0;0.7143;0.7357;0.8571;0.985;1" dur="5.05s" begin="0s" repeatCount="indefinite"/></g><g opacity="0"><rect x="192" y="0" width="8" height="8" fill="#00F5FF"/><rect x="200" y="0" width="8" height="8" fill="#00F5FF"/><rect x="192" y="8" width="8" height="8" fill="#00F5FF"/><rect x="208" y="8" width="8" height="8" fill="#00F5FF"/><rect x="192" y="16" width="8" height="8" fill="#00F5FF"/><rect x="208" y="16" width="8" height="8" fill="#00F5FF"/><rect x="192" y="24" width="8" height="8" fill="#00F5FF"/><rect x="208" y="24" width="8" height="8" fill="#00F5FF"/><rect x="192" y="32" width="8" height="8" fill="#00F5FF"/><rect x="200" y="32" width="8" height="8" fill="#00F5FF"/><animate attributeName="opacity" values="0;0;1;1;1;0" keyTimes="0;0.8571;0.8786;0.8571;0.985;1" dur="5.05s" begin="0s" repeatCount="indefinite"/></g><rect x="216" y="0" width="8" height="40" fill="#FF2EC4"><animate attributeName="opacity" values="0;0;1;0;1;0;1;0;1;0;0" keyTimes="0;0.4851;0.4950;0.5545;0.5644;0.6238;0.6337;0.6931;0.7030;0.8812;1" dur="5.05s" repeatCount="indefinite"/></rect></svg>
