<svg xmlns="http://www.w3.org/2000/svg" viewBox="0 0 216 40" shape-rendering="crispEdges"><rect width="216" height="40" fill="#0D0221"/><g fill="#00F5FF"><rect x="0" y="0" width="8" height="8" fill="inherit"/><rect x="0" y="8" width="8" height="8" fill="inherit"/><rect x="0" y="16" width="8" height="8" fill="inherit"/><rect x="0" y="24" width="8" height="8" fill="inherit"/><rect x="0" y="32" width="8" height="8" fill="inherit"/><rect x="8" y="32" width="8" height="8" fill="inherit"/><rect x="16" y="32" width="8" height="8" fill="inherit"/><animate attributeName="fill" values="#00F5FF;#FF2EC4;#00F5FF" dur="2.4s" begin="0.00s" repeatCount="indefinite"/></g><g fill="#00F5FF"><rect x="32" y="0" width="8" height="8" fill="inherit"/><rect x="40" y="0" width="8" height="8" fill="inherit"/><rect x="48" y="0" width="8" height="8" fill="inherit"/><rect x="32" y="8" width="8" height="8" fill="inherit"/><rect x="32" y="16" width="8" height="8" fill="inherit"/><rect x="40" y="16" width="8" height="8" fill="inherit"/><rect x="48" y="16" width="8" height="8" fill="inherit"/><rect x="32" y="24" width="8" height="8" fill="inherit"/><rect x="32" y="32" width="8" height="8" fill="inherit"/><rect x="40" y="32" width="8" height="8" fill="inherit"/><rect x="48" y="32" width="8" height="8" fill="inherit"/><animate attributeName="fill" values="#00F5FF;#FF2EC4;#00F5FF" dur="2.4s" begin="0.12s" repeatCount="indefinite"/></g><g fill="#00F5FF"><rect x="72" y="0" width="8" height="8" fill="inherit"/><rect x="64" y="8" width="8" height="8" fill="inherit"/><rect x="80" y="8" width="8" height="8" fill="inherit"/><rect x="64" y="16" width="8" height="8" fill="inherit"/><rect x="72" y="16" width="8" height="8" fill="inherit"/><rect x="80" y="16" width="8" height="8" fill="inherit"/><rect x="64" y="24" width="8" height="8" fill="inherit"/><rect x="80" y="24" width="8" height="8" fill="inherit"/><rect x="64" y="32" width="8" height="8" fill="inherit"/><rect x="80" y="32" width="8" height="8" fill="inherit"/><animate attributeName="fill" values="#00F5FF;#FF2EC4;#00F5FF" dur="2.4s" begin="0.24s" repeatCount="indefinite"/></g><g fill="#00F5FF"><rect x="96" y="0" width="8" height="8" fill="inherit"/><rect x="104" y="0" width="8" height="8" fill="inherit"/><rect x="112" y="0" width="8" height="8" fill="inherit"/><rect x="96" y="8" width="8" height="8" fill="inherit"/><rect x="112" y="8" width="8" height="8" fill="inherit"/><rect x="96" y="16" width="8" height="8" fill="inherit"/><rect x="104" y="16" width="8" height="8" fill="inherit"/><rect x="112" y="16" width="8" height="8" fill="inherit"/><rect x="96" y="24" width="8" height="8" fill="inherit"/><rect x="104" y="24" width="8" height="8" fill="inherit"/><rect x="96" y="32" width="8" height="8" fill="inherit"/><rect x="112" y="32" width="8" height="8" fill="inherit"/><animate attributeName="fill" values="#00F5FF;#FF2EC4;#00F5FF" dur="2.4s" begin="0.36s" repeatCount="indefinite"/></g><g fill="#00F5FF"><rect x="128" y="0" width="8" height="8" fill="inherit"/><rect x="144" y="0" width="8" height="8" fill="inherit"/><rect x="128" y="8" width="8" height="8" fill="inherit"/><rect x="136" y="8" width="8" height="8" fill="inherit"/><rect x="144" y="8" width="8" height="8" fill="inherit"/><rect x="128" y="16" width="8" height="8" fill="inherit"/><rect x="136" y="16" width="8" height="8" fill="inherit"/><rect x="144" y="16" width="8" height="8" fill="inherit"/><rect x="128" y="24" width="8" height="8" fill="inherit"/><rect x="144" y="24" width="8" height="8" fill="inherit"/><rect x="128" y="32" width="8" height="8" fill="inherit"/><rect x="144" y="32" width="8" height="8" fill="inherit"/><animate attributeName="fill" values="#00F5FF;#FF2EC4;#00F5FF" dur="2.4s" begin="0.48s" repeatCount="indefinite"/></g><g fill="#00F5FF"><rect x="160" y="0" width="8" height="8" fill="inherit"/><rect x="168" y="0" width="8" height="8" fill="inherit"/><rect x="176" y="0" width="8" height="8" fill="inherit"/><rect x="160" y="8" width="8" height="8" fill="inherit"/><rect x="160" y="16" width="8" height="8" fill="inherit"/><rect x="168" y="16" width="8" height="8" fill="inherit"/><rect x="176" y="16" width="8" height="8" fill="inherit"/><rect x="160" y="24" width="8" height="8" fill="inherit"/><rect x="160" y="32" width="8" height="8" fill="inherit"/><rect x="168" y="32" width="8" height="8" fill="inherit"/><rect x="176" y="32" width="8" height="8" fill="inherit"/><animate attributeName="fill" values="#00F5FF;#FF2EC4;#00F5FF" dur="2.4s" begin="0.60s" repeatCount="indefinite"/></g><g fill="#00F5FF"><rect x="192" y="0" width="8" height="8" fill="inherit"/><rect x="200" y="0" width="8" height="8" fill="inherit"/><rect x="192" y="8" width="8" height="8" fill="inherit"/><rect x="208" y="8" width="8" height="8" fill="inherit"/><rect x="192" y="16" width="8" height="8" fill="inherit"/><rect x="208" y="16" width="8" height="8" fill="inherit"/><rect x="192" y="24" width="8" height="8" fill="inherit"/><rect x="208" y="24" width="8" height="8" fill="inherit"/><rect x="192" y="32" width="8" height="8" fill="inherit"/><rect x="200" y="32" width="8" height="8" fill="inherit"/><animate attributeName="fill" values="#00F5FF;#FF2EC4;#00F5FF" dur="2.4s" begin="0.72s" repeatCount="indefinite"/></g><rect x="208" y="0" width="8" height="40" fill="#FF2EC4"><animate attributeName="opacity" values="0;1;0" dur="1.1s" repeatCount="indefinite"/></rect><rect x="0" y="-12" width="216" height="12" fill="#FFFFFF" opacity="0.35"><animate attributeName="y" values="-12;40" dur="2.6s" repeatCount="indefinite"/></rect></svg>
