<svg xmlns="http://www.w3.org/2000/svg" viewBox="0 0 200 50" shape-rendering="crispEdges"><rect width="200" height="50" fill="#0D0221"/><clipPath id="aclip"><rect x="0" y="0" width="0" height="50"><animate attributeName="width" values="0;190;190;0;0" keyTimes="0.00000;0.32258;0.69124;0.88479;1" dur="4.34s" repeatCount="indefinite"/></rect></clipPath><g clip-path="url(#aclip)"><rect x="10" y="0" width="10" height="10" fill="#00F5FF"/><rect x="0" y="10" width="10" height="10" fill="#00F5FF"/><rect x="20" y="10" width="10" height="10" fill="#00F5FF"/><rect x="0" y="20" width="10" height="10" fill="#00F5FF"/><rect x="10" y="20" width="10" height="10" fill="#00F5FF"/><rect x="20" y="20" width="10" height="10" fill="#00F5FF"/><rect x="0" y="30" width="10" height="10" fill="#00F5FF"/><rect x="20" y="30" width="10" height="10" fill="#00F5FF"/><rect x="0" y="40" width="10" height="10" fill="#00F5FF"/><rect x="20" y="40" width="10" height="10" fill="#00F5FF"/><rect x="40" y="0" width="10" height="10" fill="#00F5FF"/><rect x="50" y="0" width="10" height="10" fill="#00F5FF"/><rect x="60" y="0" width="10" height="10" fill="#00F5FF"/><rect x="40" y="10" width="10" height="10" fill="#00F5FF"/><rect x="60" y="10" width="10" height="10" fill="#00F5FF"/><rect x="40" y="20" width="10" height="10" fill="#00F5FF"/><rect x="50" y="20" width="10" height="10" fill="#00F5FF"/><rect x="60" y="20" width="10" height="10" fill="#00F5FF"/><rect x="40" y="30" width="10" height="10" fill="#00F5FF"/><rect x="60" y="30" width="10" height="10" fill="#00F5FF"/><rect x="40" y="40" width="10" height="10" fill="#00F5FF"/><rect x="50" y="40" width="10" height="10" fill="#00F5FF"/><rect x="60" y="40" width="10" height="10" fill="#00F5FF"/><rect x="80" y="0" width="10" height="10" fill="#00F5FF"/><rect x="90" y="0" width="10" height="10" fill="#00F5FF"/><rect x="80" y="10" width="10" height="10" fill="#00F5FF"/><rect x="100" y="10" width="10" height="10" fill="#00F5FF"/><rect x="80" y="20" width="10" height="10" fill="#00F5FF"/><rect x="100" y="20" width="10" height="10" fill="#00F5FF"/><rect x="80" y="30" width="10" height="10" fill="#00F5FF"/><rect x="100" y="30" width="10" height="10" fill="#00F5FF"/><rect x="80" y="40" width="10" height="10" fill="#00F5FF"/><rect x="90" y="40" width="10" height="10" fill="#00F5FF"/><rect x="120" y="0" width="10" height="10" fill="#00F5FF"/><rect x="140" y="0" width="10" height="10" fill="#00F5FF"/><rect x="120" y="10" width="10" height="10" fill="#00F5FF"/><rect x="140" y="10" width="10" height="10" fill="#00F5FF"/><rect x="120" y="20" width="10" height="10" fill="#00F5FF"/><rect x="140" y="20" width="10" height="10" fill="#00F5FF"/><rect x="120" y="30" width="10" height="10" fill="#00F5FF"/><rect x="140" y="30" width="10" height="10" fill="#00F5FF"/><rect x="120" y="40" width="10" height="10" fill="#00F5FF"/><rect x="130" y="40" width="10" height="10" fill="#00F5FF"/><rect x="140" y="40" width="10" height="10" fill="#00F5FF"/><rect x="160" y="0" width="10" height="10" fill="#00F5FF"/><rect x="170" y="0" width="10" height="10" fill="#00F5FF"/><rect x="180" y="0" width="10" height="10" fill="#00F5FF"/><rect x="160" y="10" width="10" height="10" fill="#00F5FF"/><rect x="180" y="10" width="10" height="10" fill="#00F5FF"/><rect x="160" y="20" width="10" height="10" fill="#00F5FF"/><rect x="170" y="20" width="10" height="10" fill="#00F5FF"/><rect x="180" y="20" width="10" height="10" fill="#00F5FF"/><rect x="160" y="30" width="10" height="10" fill="#00F5FF"/><rect x="170" y="30" width="10" height="10" fill="#00F5FF"/><rect x="160" y="40" width="10" height="10" fill="#00F5FF"/><rect x="180" y="40" width="10" height="10" fill="#00F5FF"/></g><rect x="190" y="0" width="10" height="50" fill="#FF2EC4" opacity="0"><animate attributeName="opacity" values="0;0;1;0;1;0;1;0" keyTimes="0;0.32258;0.32358;0.44424;0.44524;0.56590;0.56690;0.69124" dur="4.34s" repeatCount="indefinite" calcMode="discrete"/></rect></svg>
