<svg xmlns="http://www.w3.org/2000/svg" viewBox="0 0 146 72" shape-rendering="crispEdges"><clipPath id="wkclip"><rect x="0" y="0" width="0" height="35"><animate attributeName="width" values="0;21;49;77;105;105;77;49;21;0;0" keyTimes="0.00000;0.05366;0.10732;0.16098;0.21463;0.75122;0.78293;0.81463;0.84634;0.87805;1.00000" calcMode="discrete" dur="4.10s" repeatCount="indefinite"/></rect></clipPath><rect x="5" y="5" width="141" height="67" rx="14" fill="#00000022"/><rect x="0" y="0" width="141" height="67" rx="14" fill="#FFFFFF" stroke="#0F766E" stroke-width="4"/><g transform="translate(18,16)" clip-path="url(#wkclip)"><rect x="0" y="0" width="7" height="7" fill="#0F172A"/><rect x="14" y="0" width="7" height="7" fill="#0F172A"/><rect x="0" y="7" width="7" height="7" fill="#0F172A"/><rect x="14" y="7" width="7" height="7" fill="#0F172A"/><rect x="0" y="14" width="7" height="7" fill="#0F172A"/><rect x="14" y="14" width="7" height="7" fill="#0F172A"/><rect x="0" y="21" width="7" height="7" fill="#0F172A"/><rect x="7" y="21" width="7" height="7" fill="#0F172A"/><rect x="14" y="21" width="7" height="7" fill="#0F172A"/><rect x="0" y="28" width="7" height="7" fill="#0F172A"/><rect x="14" y="28" width="7" height="7" fill="#0F172A"/><rect x="28" y="0" width="7" height="7" fill="#0F172A"/><rect x="35" y="0" width="7" height="7" fill="#0F172A"/><rect x="42" y="0" width="7" height="7" fill="#0F172A"/><rect x="28" y="7" width="7" height="7" fill="#0F172A"/><rect x="42" y="7" width="7" height="7" fill="#0F172A"/><rect x="28" y="14" width="7" height="7" fill="#0F172A"/><rect x="42" y="14" width="7" height="7" fill="#0F172A"/><rect x="28" y="21" width="7" height="7" fill="#0F172A"/><rect x="42" y="21" width="7" height="7" fill="#0F172A"/><rect x="28" y="28" width="7" height="7" fill="#0F172A"/><rect x="35" y="28" width="7" height="7" fill="#0F172A"/><rect x="42" y="28" width="7" height="7" fill="#0F172A"/><rect x="56" y="0" width="7" height="7" fill="#0F172A"/><rect x="63" y="0" width="7" height="7" fill="#0F172A"/><rect x="70" y="0" width="7" height="7" fill="#0F172A"/><rect x="56" y="7" width="7" height="7" fill="#0F172A"/><rect x="70" y="7" width="7" height="7" fill="#0F172A"/><rect x="56" y="14" width="7" height="7" fill="#0F172A"/><rect x="63" y="14" width="7" height="7" fill="#0F172A"/><rect x="70" y="14" width="7" height="7" fill="#0F172A"/><rect x="56" y="21" width="7" height="7" fill="#0F172A"/><rect x="63" y="21" width="7" height="7" fill="#0F172A"/><rect x="56" y="28" width="7" height="7" fill="#0F172A"/><rect x="70" y="28" width="7" height="7" fill="#0F172A"/><rect x="84" y="0" width="7" height="7" fill="#0F172A"/><rect x="98" y="0" width="7" height="7" fill="#0F172A"/><rect x="84" y="7" width="7" height="7" fill="#0F172A"/><rect x="91" y="7" width="7" height="7" fill="#0F172A"/><rect x="84" y="14" width="7" height="7" fill="#0F172A"/><rect x="84" y="21" width="7" height="7" fill="#0F172A"/><rect x="91" y="21" width="7" height="7" fill="#0F172A"/><rect x="84" y="28" width="7" height="7" fill="#0F172A"/><rect x="98" y="28" width="7" height="7" fill="#0F172A"/></g><g transform="translate(18,16)"><rect x="105" y="0" width="7" height="35" fill="#2DD4BF" opacity="0"><animate attributeName="opacity" values="0;0;1;0;1;0;1;0" keyTimes="0;0.21463;0.21563;0.39171;0.39271;0.56878;0.56978;0.75122" dur="4.10s" repeatCount="indefinite" calcMode="discrete"/></rect></g></svg>
